<?xml version="1.0" standalone="no"?><!DOCTYPE svg PUBLIC "-//W3C//DTD SVG 1.1//EN" "http://www.w3.org/Graphics/SVG/1.1/DTD/svg11.dtd"><svg class="icon" width="64px" height="64.00px" viewBox="0 0 1024 1024" version="1.1" xmlns="http://www.w3.org/2000/svg"><path fill="#000000" d="M512 0C356.341401 112.101911 63.408917 112.101911 63.408917 112.101911v428.025478c0 334.899363 322.547771 450.44586 448.591083 483.811465 125.472611-33.284076 448.591083-149.034395 448.591083-483.811465v-428.025478S667.658599 112.101911 512 0z m394.252229 537.681529c0 285.717197-286.736306 402.955414-394.252229 436.178344-108.025478-33.732484-394.252229-151.092994-394.252229-436.178344V168.010191s238.593631-7.663694 394.252229-100.300637c155.658599 91.149045 394.252229 100.300637 394.252229 100.300637z m0 0"  /><path fill="#000000" d="M512 235.86242A220.901911 220.901911 0 1 0 732.901911 456.764331a220.922293 220.922293 0 0 0-220.901911-220.901911zM235.86242 456.764331a276.13758 276.13758 0 1 1 276.13758 276.219108A276.13758 276.13758 0 0 1 235.86242 456.764331z m82.873886 358.970701a27.617834 27.617834 0 0 1 27.57707-27.719745h331.352866a27.617834 27.617834 0 1 1 0 55.235668H346.313376a27.617834 27.617834 0 0 1-27.57707-27.515923z"  /><path fill="#000000" d="M478.185987 682.292994a27.332484 27.332484 0 0 1 12.371975 36.810191l-55.378344 109.798726a27.801274 27.801274 0 0 1-36.687898 11.515923 27.332484 27.332484 0 0 1-12.759236-36.056051l55.378344-109.798726a27.801274 27.801274 0 0 1 37.075159-12.270063z m86.012739 0a27.332484 27.332484 0 0 0-12.371974 36.810191l55.378344 109.798726a27.801274 27.801274 0 0 0 36.687898 11.515923 27.332484 27.332484 0 0 0 12.759235-36.056051l-55.378344-109.798726a27.801274 27.801274 0 0 0-37.075159-12.270063z m-43.006369-293.849682a71.33758 71.33758 0 1 0 71.969426 71.33758 71.663694 71.663694 0 0 0-71.969426-71.317198z m-127.368153 71.33758a127.368153 127.368153 0 1 1 127.368153 126.369426 126.817834 126.817834 0 0 1-127.368153-126.369426zM521.192357 199.011465a27.57707 27.57707 0 0 1 27.678981 27.454777v41.171975a27.699363 27.699363 0 0 1-55.378344 0v-41.171975a27.57707 27.57707 0 0 1 27.678981-27.454777z"  /></svg>