<?xml version="1.0" standalone="no"?><!DOCTYPE svg PUBLIC "-//W3C//DTD SVG 1.1//EN" "http://www.w3.org/Graphics/SVG/1.1/DTD/svg11.dtd"><svg class="icon" width="64px" height="59.69px" viewBox="0 0 1098 1024" version="1.1" xmlns="http://www.w3.org/2000/svg"><path fill="#000000" d="M775.862331 0C877.29592 0 914.922592 77.233697 939.894821 128.16833a98.819525 98.819525 0 0 1 4.05972 9.901756l70.14404 205.956525a29.8835 29.8835 0 0 1-3.802275 26.714938 28.695289 28.695289 0 0 1-23.486965 12.377195h-13.70403a37.626673 37.626673 0 0 1-35.646322-25.962405l-63.371238-189.420592a15.525953 15.525953 0 0 0-0.693123-1.980351l-7.109461-14.535778c-23.368144-46.716485-44.32026-74.65924-92.442794-74.65924H354.483202c-52.954591 0-72.936335 33.66597-99.552255 89.254428l-0.316856 0.831748L170.31054 418.210567l-8.079833 23.764214L141.377609 455.480777c-10.733504 6.99064-38.101957 26.477296-54.083391 55.113174a46.161987 46.161987 0 0 1 15.545757-2.673474h492.49354a41.924035 41.924035 0 0 1 34.141255 15.842809 26.714938 26.714938 0 0 1 0 31.685619 41.943838 41.943838 0 0 1-34.141255 15.84281H102.978599a44.775741 44.775741 0 0 1-27.724917-9.268044v319.014776a76.144504 76.144504 0 0 0 64.737681 75.986075c36.834532 5.465769 71.807535-18.080606 82.402414-55.449833l14.476367-56.935097 308.697146-1.40605a37.250406 37.250406 0 0 1 26.477295 11.05036 38.577241 38.577241 0 0 1 10.951342 26.972383 37.963333 37.963333 0 0 1-37.448441 38.3396l-256.079214 1.148603C269.783581 991.443026 198.827597 1023.841572 126.32694 1013.939816A146.545989 146.545989 0 0 1 0.000337 868.48302V544.279725c0-70.20345 49.389959-126.009747 99.908718-157.814188l84.620407-248.336041a85.155102 85.155102 0 0 1 4.138934-9.901756l8.060029-16.377504C221.799671 62.202831 261.406695 0 352.502851 0zM266.753644 653.337665c41.131894 0 76.045486 33.844202 76.045486 74.025528 0.831748 40.121915-34.913592 74.084939-76.1247 74.084939s-76.223718-33.963023-76.223718-74.084939 34.913592-74.025528 76.223718-74.025528zM666.348909 190.450375c103.354529 0 142.387251 70.322271 171.082541 120.662799 1.584281 3.168562 38.082154 43.369691 38.082153 101.136536q-12.535623 0.356463-80.105206 0.376267l-526.575385-0.376267 37.072175-112.99884c25.744566-48.37998 66.08432-108.800495 158.90338-108.800495h201.540342z m-25.447513 74.065135h-151.140403c-69.648952 0-108.919316 41.468554-108.919317 73.966118h362.404271q-24.952425-73.985921-102.403961-73.966118z m353.334262 432.785952l-132.465692 133.178618a13.24855 13.24855 0 0 1-3.188365 3.822078 19.209407 19.209407 0 0 1-13.862459 5.762822 20.991723 20.991723 0 0 1-14.298135-5.762822 11.248395 11.248395 0 0 1-2.752689-3.841881l-71.055001-71.292643a19.605477 19.605477 0 0 1 0-27.309043 18.991568 18.991568 0 0 1 27.210026 0l60.895799 60.836389 122.306491-122.603543a18.912354 18.912354 0 0 1 27.190222 0 18.773729 18.773729 0 0 1 0 27.289239z m-119.37557-192.094067a52.419896 52.419896 0 0 0-26.338671 7.406514l-9.901756 8.594724c-6.634177 5.743018-15.327918 13.030711-21.447204 17.486501a137.258142 137.258142 0 0 1-32.002475 18.001393l-7.921405 2.455635a262.059875 262.059875 0 0 1-59.410536 6.356928h-4.73304l-9.070008-0.435678h-1.881334a48.498801 48.498801 0 0 0-33.547149 12.872283 46.300611 46.300611 0 0 0-15.84281 34.973002v75.827648c0 127.574224 38.121761 217.838632 102.34455 276.001547 37.151389 33.66597 75.253346 50.776205 104.958614 57.271757l7.802584 1.544674 4.11913 0.356463h6.752998l3.010134-0.356463 2.970527-0.554499c28.754699-4.733039 70.639127-22.120523 110.780846-58.222325 64.559449-58.143111 102.859441-148.52634 102.859441-276.041154v-75.748434a48.122534 48.122534 0 0 0-15.367525-34.973002 49.667208 49.667208 0 0 0-33.66597-12.872283h-2.297208l-4.812253 0.257446a255.108842 255.108842 0 0 1-67.470566-6.158892 67.94585 67.94585 0 0 1-12.496016-4.435987 172.290555 172.290555 0 0 1-27.922952-16.852789l-32.378742-24.8138a51.489131 51.489131 0 0 0-27.111008-7.921405z m0 35.309662a16.100255 16.100255 0 0 1 8.020422 2.297208l28.41804 21.902684 2.455635 1.80212a203.976174 203.976174 0 0 0 33.883809 20.35801 101.61182 101.61182 0 0 0 19.011372 6.673784 288.53717 288.53717 0 0 0 67.094299 7.38671h5.366751l7.921405-0.396071h2.297208a14.357546 14.357546 0 0 1 9.70372 3.564632 12.852479 12.852479 0 0 1 3.960703 8.951188v75.827647c0 117.811093-34.220469 198.510405-91.096155 249.761894-32.042082 28.853717-65.212965 43.726155-89.016787 48.914675l-6.25791 1.208014H873.335217l0.356463 0.099018c-25.744566-4.574611-60.539336-19.130193-94.819215-50.162296-56.618241-51.3109-90.680282-132.010211-90.680282-249.821305v-75.887058a11.486037 11.486037 0 0 1 3.960703-8.495706 14.080297 14.080297 0 0 1 10.218612-3.960703l4.950878 0.217839a313.370774 313.370774 0 0 0 65.01493-4.376576l16.456718-3.643846c16.179469-4.416183 32.655991-13.347567 49.251335-25.42771l2.792295-1.980351a292.517676 292.517676 0 0 0 26.774348-22.793842l-0.415874 0.178231a16.813182 16.813182 0 0 1 7.683763-1.980351z"  /></svg>