<?xml version="1.0" standalone="no"?><!DOCTYPE svg PUBLIC "-//W3C//DTD SVG 1.1//EN" "http://www.w3.org/Graphics/SVG/1.1/DTD/svg11.dtd"><svg class="icon" width="64px" height="64.00px" viewBox="0 0 1024 1024" version="1.1" xmlns="http://www.w3.org/2000/svg"><path fill="#000000" d="M800 64c-88.4 0-160 71.6-160 160s71.6 160 160 160 160-71.6 160-160S888.4 64 800 64z m0 256c-52.9 0-96-43.1-96-96s43.1-96 96-96 96 43.1 96 96-43.1 96-96 96zM800 576H640V474.5l45.3-45.3c25-25 25-65.5 0-90.5s-65.5-25-90.5 0l-9.4 9.4-82.7-82.7c-0.4-0.4-0.8-0.7-1.2-1.1-0.2-0.2-0.4-0.3-0.6-0.5-0.2-0.2-0.4-0.4-0.6-0.5-0.2-0.2-0.5-0.4-0.7-0.6-0.2-0.1-0.3-0.3-0.5-0.4-0.3-0.2-0.6-0.4-0.8-0.6-0.1-0.1-0.3-0.2-0.4-0.3l-0.9-0.6c-0.1-0.1-0.3-0.2-0.4-0.3-0.3-0.2-0.6-0.3-0.9-0.5-0.2-0.1-0.3-0.2-0.5-0.3-0.3-0.1-0.6-0.3-0.8-0.4l-0.6-0.3c-0.3-0.1-0.5-0.2-0.8-0.4-0.2-0.1-0.4-0.2-0.7-0.3-0.2-0.1-0.5-0.2-0.7-0.3-0.3-0.1-0.5-0.2-0.8-0.3-0.2-0.1-0.4-0.1-0.6-0.2l-0.9-0.3c-0.2-0.1-0.4-0.1-0.6-0.2-0.3-0.1-0.6-0.2-1-0.3-0.2 0-0.4-0.1-0.5-0.1-0.3-0.1-0.7-0.2-1-0.2-0.2 0-0.4-0.1-0.5-0.1-0.3-0.1-0.7-0.1-1-0.2-0.2 0-0.4-0.1-0.6-0.1-0.3 0-0.6-0.1-0.9-0.1-0.3 0-0.6 0-0.9-0.1H262c-17.7 0-32 14.3-32 32s14.3 32 32 32h204.7l73.4 73.4-201.3 201.6c-16.9 16.9-22.4 41-16.4 62.5l-249 248.1c-12.5 12.5-12.6 32.7-0.1 45.3 6.3 6.3 14.5 9.4 22.7 9.4s16.3-3.1 22.6-9.3L368.1 702c5.2 1.3 10.5 2 15.9 2 5.8 0 11.7-0.8 17.3-2.4l98.4 98.4-105.3 105.4c-12.5 12.5-12.5 32.8 0 45.3 6.2 6.2 14.4 9.4 22.6 9.4s16.4-3.1 22.6-9.4l127.5-127.5 0.2-0.2 0.3-0.3c12.5-12.5 12.5-32.8 0-45.3L452.4 662.2 576 538.5V608c0 17.7 14.3 32 32 32h192c17.7 0 32-14.3 32-32s-14.3-32-32-32z" /></svg>