<?xml version="1.0" standalone="no"?><!DOCTYPE svg PUBLIC "-//W3C//DTD SVG 1.1//EN" "http://www.w3.org/Graphics/SVG/1.1/DTD/svg11.dtd"><svg class="icon" width="64px" height="64.00px" viewBox="0 0 1024 1024" version="1.1" xmlns="http://www.w3.org/2000/svg"><path fill="#000000" d="M645.306182 423.098182h28.997818c7.447273 0 14.429091-3.863273 18.245818-10.24l81.780364-131.584a21.550545 21.550545 0 0 0-6.888727-29.602909 21.550545 21.550545 0 0 0-29.60291 6.888727l-21.410909 34.443636-80.756363-139.170909a21.550545 21.550545 0 0 0-18.618182-10.705454h-160.581818a21.550545 21.550545 0 0 0-18.618182 10.705454l-115.991273 200.145455a21.364364 21.364364 0 0 0-2.141091 16.290909c1.442909 5.585455 5.12 10.24 10.053818 13.079273l81.594182 47.243636a22.016 22.016 0 0 0 16.337455 2.187636c5.585455-1.442909 10.24-5.12 13.079273-10.053818l96.023272-165.981091 71.307637 123.205818h-38.213819a21.597091 21.597091 0 0 0 0 43.147637h75.403637zM414.254545 382.603636l-44.264727-25.6 98.862546-170.728727h26.996363l15.918546 27.554909L414.254545 382.557091z m141.637819-178.641454l-0.512-1.070546-9.681455-16.756363h58.973091l85.876364 147.921454-28.439273 45.893818h-4.282182l-101.934545-175.941818z m359.982545 442.461091l-115.153454-200.331637a21.364364 21.364364 0 0 0-29.416728-7.959272l-81.640727 47.057454a21.504 21.504 0 0 0-7.912727 29.416727l95.790545 166.260364-142.289454 0.186182 19.223272-33.373091a21.597091 21.597091 0 0 0-7.866181-29.463273 21.597091 21.597091 0 0 0-29.416728 7.912728l-52.363636 90.763636a21.504 21.504 0 0 0-0.325818 20.945454l73.169454 136.564364a21.410909 21.410909 0 0 0 29.090909 8.750546 21.550545 21.550545 0 0 0 8.750546-29.137455l-19.083637-35.607273 160.395637-0.558545c7.68 0 14.754909-4.189091 18.618182-10.798546l54.365091-94.161454 0.372363-0.698182 25.6-44.311273a21.410909 21.410909 0 0 0 0.093091-21.457454z m-141.730909-160.116364l98.117818 170.775273-13.498182 23.412363-31.650909 0.093091-97.186909-168.727272 44.218182-25.6z m30.254545 288.442182l-170.821818 0.512-25.320727-47.429818 2.141091-3.723637 202.193454-0.372363c0.651636 0.093091 1.349818 0.093091 1.95491 0.093091h0.09309l19.176728-0.093091-29.463273 51.013818z m-319.022545-93.882182l-192.186182-0.186182 70.888727-123.298909 19.130182 33.233455a21.550545 21.550545 0 0 0 37.329455-21.597091l-37.841455-65.582546-12.194909-21.038545-2.327273-4.096a21.504 21.504 0 0 0-17.966545-10.705455L195.258182 462.661818a21.504 21.504 0 1 0-1.349818 43.008l40.634181 1.256727-79.778909 139.310546a21.643636 21.643636 0 0 0 0 21.504l54.365091 94.208c0.372364 0.512 0.651636 1.070545 0.977455 1.582545l25.274182 43.240728a21.317818 21.317818 0 0 0 18.478545 10.565818l231.330909 0.232727a21.271273 21.271273 0 0 0 21.550546-21.178182v-94.021818a21.271273 21.271273 0 0 0-21.410909-21.504zM283.229091 508.741818l53.76 1.768727 2.141091 3.723637-111.383273 193.768727-29.509818-51.106909 84.992-148.154182z m180.596364 266.146909l-197.399273-0.465454-13.730909-23.412364 3.397818-5.818182 12.567273-21.643636 195.118545 0.279273v51.060363z" /></svg>