<?xml version="1.0" standalone="no"?><!DOCTYPE svg PUBLIC "-//W3C//DTD SVG 1.1//EN" "http://www.w3.org/Graphics/SVG/1.1/DTD/svg11.dtd"><svg class="icon" width="64px" height="64.00px" viewBox="0 0 1024 1024" version="1.1" xmlns="http://www.w3.org/2000/svg"><path fill="#000000" d="M511.971913 1023.922902a19.509662 19.509662 0 0 1-10.818251-2.16774C76.87986 865.902818 87.698111 539.0444 87.698111 536.856209V173.217783a29.172467 29.172467 0 0 1 30.307463-28.139722c337.686894 0 363.658876-116.89437 363.658876-119.051885a30.920974 30.920974 0 0 1 60.614926-2.167741s28.139722 119.051885 363.658876 119.051886a29.172467 29.172467 0 0 1 30.307463 28.139722v365.806166c0 21.646727-2.16774 333.341189-413.445326 484.878502a23.517937 23.517937 0 0 1-10.818251 2.167741zM146.145296 201.357506v337.686894c0 10.818251-6.492996 283.57519 365.826617 426.390416 370.151872-142.866352 363.658876-415.613066 363.658876-426.390416V201.357506c-227.28552-6.492996-324.700903-64.940181-363.658876-112.55889-41.125714 47.618709-138.541097 106.065894-365.826617 112.55889z"  /><path fill="#000000" d="M516.297168 333.395382a97.405158 97.405158 0 1 0 97.405159 97.405158 99.859204 99.859204 0 0 0-97.405159-97.405158z"  /><path fill="#000000" d="M589.90831 523.890669a113.274653 113.274653 0 0 1-73.621367 25.971982 121.383229 121.383229 0 0 1-73.621367-25.971982 149.287772 149.287772 0 0 0-69.265436 119.051885 503.457672 503.457672 0 0 0 73.621367 4.325255h142.866352a527.752723 527.752723 0 0 0 73.621367-4.325255 170.177834 170.177834 0 0 0-73.600916-119.051885z"  /></svg>