<?xml version="1.0" standalone="no"?><!DOCTYPE svg PUBLIC "-//W3C//DTD SVG 1.1//EN" "http://www.w3.org/Graphics/SVG/1.1/DTD/svg11.dtd"><svg class="icon" width="64px" height="64.00px" viewBox="0 0 1024 1024" version="1.1" xmlns="http://www.w3.org/2000/svg"><path fill="#000000" d="M854.609567 74.41585c-2.879584 0-5.814426 0.216941-8.856715 0.760317L621.66005 112.452141c-30.211069 5.053086-54.880935 34.232662-54.880935 64.826448L399.525857 177.278589c-161.27715 0-222.189452-93.298919-224.689389-97.320513-8.096399-12.986779-25.157983-16.953114-38.20002-9.019421-13.095249 8.04114-17.171078 25.213241-9.128915 38.308491 1.847068 3.043313 30.646997 47.437405 95.362928 82.159208-43.036165 34.722826-100.471272 101.775988-99.492992 211.919551l0 358.360807c0 15.378246 12.443403 27.821649 27.821649 27.821649 15.377222 0 27.821649-12.44238 27.821649-27.821649L179.020768 403.053706c-1.032516-116.174929 79.171154-171.817204 105.090477-186.706309 32.712029 9.781784 70.585615 16.573467 115.414613 16.573467l29.233811 0 0 31.353079L247.106446 375.34155c-8.259104 5.107321-13.313214 14.07353-13.313214 23.74582l0.216941 530.23327c0 15.377222 12.443403 27.821649 27.821649 27.821649l389.496945 0c15.377222 0 27.821649-12.443403 27.821649-27.821649l0.217964-530.23327c0-9.56382-4.944616-18.47477-13.041014-23.583115L484.401943 261.448594l0-28.52773 82.377172 0c0 30.592762 24.668843 59.771315 54.880935 64.825424l224.091778 37.276998c3.043313 0.542352 5.977132 0.760317 8.856715 0.760317 26.027793 0 46.02422-19.671015 46.02422-47.220465L900.632763 121.636315C900.632763 94.085842 880.636337 74.41585 854.609567 74.41585zM623.562377 733.865063 510.267031 733.865063 510.267031 566.774511l113.403816 0L623.562377 733.865063zM623.726106 414.464593l-0.055259 96.668667L482.445382 511.13326c-15.377222 0-27.821649 12.44238-27.821649 27.820626l0 222.731804c0 15.378246 12.443403 27.821649 27.821649 27.821649l141.116995 0-0.055259 111.991654L289.653471 901.498992l-0.216941-486.816434 169.425737-103.56882L623.726106 414.464593zM844.990488 278.511201 630.789988 242.86433c-3.369747-0.597611-8.368598-6.519484-8.368598-9.943466l0-55.642275c0-3.423983 4.998851-9.346879 8.368598-9.94449l214.2005-35.645848L844.990488 278.511201z"  /></svg>