<?xml version="1.0" standalone="no"?><!DOCTYPE svg PUBLIC "-//W3C//DTD SVG 1.1//EN" "http://www.w3.org/Graphics/SVG/1.1/DTD/svg11.dtd"><svg class="icon" width="64px" height="64.00px" viewBox="0 0 1024 1024" version="1.1" xmlns="http://www.w3.org/2000/svg"><path fill="#000000" d="M619.154286 550.912L529.846857 640.731429 386.998857 497.371429l83.382857-83.821715-41.691428-41.910857-83.382857 83.821714-83.382858-83.821714L160.914286 473.088a276.626286 276.626286 0 0 0-23.844572 365.275429L0 982.089143 41.691429 1024l136.923428-137.728a248.685714 248.685714 0 0 0 166.692572 59.904 279.332571 279.332571 0 0 0 196.461714-83.821714l101.229714-101.668572-77.385143-78.043428 89.307429-89.819429-35.693714-41.910857z m-119.076572 263.314286a212.553143 212.553143 0 0 1-148.845714 65.828571 184.100571 184.100571 0 0 1-142.848-59.904l-5.924571-5.997714a208.822857 208.822857 0 0 1 5.924571-293.449143l53.613714-53.906286L553.691429 760.685714l-53.613715 53.906286zM1024 41.910857L982.308571 0l-130.925714 125.732571A248.685714 248.685714 0 0 0 684.617143 65.828571a279.332571 279.332571 0 0 0-196.461714 83.821715L386.925714 245.467429l386.998857 389.266285 95.085715-95.817143a276.626286 276.626286 0 0 0 23.844571-365.275428z m-202.386286 449.097143l-47.616 47.908571-291.766857-293.376 47.616-47.908571A212.553143 212.553143 0 0 1 678.692571 131.657143a184.100571 184.100571 0 0 1 142.848 59.904l5.924572 5.997714a203.556571 203.556571 0 0 1-5.851429 293.449143z"  /></svg>