<?xml version="1.0" standalone="no"?><!DOCTYPE svg PUBLIC "-//W3C//DTD SVG 1.1//EN" "http://www.w3.org/Graphics/SVG/1.1/DTD/svg11.dtd"><svg class="icon" width="64px" height="64.00px" viewBox="0 0 1024 1024" version="1.1" xmlns="http://www.w3.org/2000/svg"><path fill="#000000" d="M859.2 822.816l-43.904-103.776-0.288-203.712c0-155.648-119.712-287.36-271.36-303.328a399.552 399.552 0 0 0-31.936-1.824c-6.976 0-17.6 0.64-31.936 1.824a303.552 303.552 0 0 0-271.36 303.328l0.288 203.712-43.904 103.776c-11.968 19.968 3.968 43.904 27.936 43.904h638.528c23.968 0 39.904-23.936 27.936-43.904zM240.64 802.88l27.904-63.872c0-4 4-8 4-11.968l-0.32-207.712c0-131.712 107.776-239.456 239.488-239.456 131.68 0 239.456 107.744 239.456 239.456l0.288 207.68c0 4.032 0 8 4 12l27.936 63.872H240.608zM512 938.496c-31.936 0-55.872-23.968-55.872-55.872h-63.84c0 67.84 51.84 119.712 119.712 119.712 67.84 0 119.712-51.872 119.712-119.712h-63.84c0 31.904-23.936 55.872-55.872 55.872zM968.96 430.4a32 32 0 0 1-25.952 37.056l-63.04 11.104a32 32 0 0 1-11.104-63.04l63.04-11.104a32 32 0 0 1 37.056 25.952z m-876.832-25.984l63.04 11.104a32 32 0 1 1-11.136 63.04l-63.04-11.104a32 32 0 1 1 11.136-63.04zM810.24 155.52a32 32 0 0 1 3.968 45.056L773.056 249.6a32 32 0 0 1-49.024-41.12l41.152-49.024a32 32 0 0 1 45.056-3.936z m-551.424 3.936l41.152 49.024A32 32 0 1 1 250.944 249.6L209.792 200.576a32 32 0 1 1 49.024-41.12zM512 46.944a32 32 0 0 1 32 32v64a32 32 0 0 1-64 0v-64a32 32 0 0 1 32-32z"  /></svg>