<?xml version="1.0" standalone="no"?><!DOCTYPE svg PUBLIC "-//W3C//DTD SVG 1.1//EN" "http://www.w3.org/Graphics/SVG/1.1/DTD/svg11.dtd"><svg class="icon" width="64px" height="64.00px" viewBox="0 0 1024 1024" version="1.1" xmlns="http://www.w3.org/2000/svg"><path fill="#000000" d="M174.7968 904.209067m25.8048 0l622.7968 0q25.8048 0 25.8048 25.8048l0 6.894933q0 25.8048-25.8048 25.8048l-622.7968 0q-25.8048 0-25.8048-25.8048l0-6.894933q0-25.8048 25.8048-25.8048ZM744.430933 959.146667H279.569067v-37.341867a112.861867 112.861867 0 0 1 112.7424-112.725333h239.377066a112.861867 112.861867 0 0 1 112.7424 112.725333z m-412.0576-51.2h359.253334a61.627733 61.627733 0 0 0-59.938134-47.598934H392.311467A61.627733 61.627733 0 0 0 332.373333 907.946667zM635.460267 839.338667l-31.744 16.469333-39.0656-152.9856 31.744-16.469333 39.0656 152.9856zM394.7008 839.338667l31.744 16.469333 39.0656-152.9856-31.744-16.469333-39.0656 152.9856zM836.590933 733.201067H187.409067A101.802667 101.802667 0 0 1 85.7088 631.466667V162.952533a101.802667 101.802667 0 0 1 101.700267-101.6832h649.181866a101.802667 101.802667 0 0 1 101.700267 101.6832V631.466667a101.802667 101.802667 0 0 1-101.700267 101.7344zM187.409067 112.469333a50.551467 50.551467 0 0 0-50.500267 50.4832V631.466667a50.551467 50.551467 0 0 0 50.500267 50.4832h649.181866A50.551467 50.551467 0 0 0 887.0912 631.466667V162.952533a50.551467 50.551467 0 0 0-50.500267-50.4832zM111.325867 579.515733h801.365333v48.759467H111.325867zM290.491733 603.886933V86.869333h34.2016v517.0176zM263.0144 201.386667h-41.557333c-8.533333 0-15.5648 7.645867-15.5648 17.066666s6.9632 17.066667 15.5648 17.066667h41.557333c8.533333 0 15.5648-7.645867 15.5648-17.066667s-6.9632-17.066667-15.5648-17.066666zM152.695467 218.453333a17.066667 17.066667 0 1 0 8.533333-14.779733 17.066667 17.066667 0 0 0-8.533333 14.779733zM263.0144 300.987733h-41.557333c-8.533333 0-15.5648 7.645867-15.5648 17.066667s6.9632 17.066667 15.5648 17.066667h41.557333c8.533333 0 15.5648-7.645867 15.5648-17.066667s-6.9632-17.066667-15.5648-17.066667zM263.0144 391.2704h-41.557333c-8.533333 0-15.5648 7.645867-15.5648 17.066667s6.9632 17.066667 15.5648 17.066666h41.557333c8.533333 0 15.5648-7.645867 15.5648-17.066666s-6.9632-17.066667-15.5648-17.066667zM152.695467 318.0544a17.066667 17.066667 0 1 0 8.533333-14.779733 17.066667 17.066667 0 0 0-8.533333 14.779733zM363.042133 283.579733h93.405867c8.533333 0 15.5648-7.645867 15.5648-17.066666s-6.9632-17.066667-15.5648-17.066667h-93.405867c-8.533333 0-15.5648 7.645867-15.5648 17.066667s6.9632 17.066667 15.5648 17.066666zM501.435733 306.2784h-138.3936c-8.533333 0-15.5648 7.645867-15.5648 17.066667s6.9632 17.066667 15.5648 17.066666h138.3936c8.533333 0 15.5648-7.645867 15.5648-17.066666s-6.9632-17.066667-15.5648-17.066667zM548.1472 157.013333H363.042133c-8.533333 0-15.5648 7.645867-15.5648 17.066667s6.9632 17.066667 15.5648 17.066667h185.105067c8.533333 0 15.5648-7.645867 15.5648-17.066667s-6.9632-17.066667-15.5648-17.066667zM448.6656 482.2528h-85.623467c-8.533333 0-15.581867 7.6288-15.581866 17.066667s6.980267 17.066667 15.581866 17.066666h85.623467a15.36 15.36 0 0 0 13.482667-8.533333 18.500267 18.500267 0 0 0 0-17.066667 15.36 15.36 0 0 0-13.482667-8.533333zM363.042133 459.554133h36.420267c8.533333 0 15.5648-7.645867 15.5648-17.066666s-6.9632-17.066667-15.5648-17.066667h-36.420267c-8.533333 0-15.581867 7.645867-15.581866 17.066667s6.980267 17.066667 15.581866 17.066666zM811.178667 535.159467h-196.266667a30.446933 30.446933 0 0 1-30.4128-30.4128V391.509333a30.446933 30.446933 0 0 1 30.4128-30.4128h196.266667a30.446933 30.446933 0 0 1 30.4128 30.4128v113.237334a30.446933 30.446933 0 0 1-30.4128 30.4128z m-196.266667-157.013334a13.3632 13.3632 0 0 0-13.346133 13.346134v113.237333a13.3632 13.3632 0 0 0 13.346133 13.346133h196.266667a13.3632 13.3632 0 0 0 13.346133-13.346133V391.509333a13.3632 13.3632 0 0 0-13.346133-13.346133zM810.496 323.464533H615.560533a31.1296 31.1296 0 0 1-31.095466-31.0784v-112.896A31.1296 31.1296 0 0 1 615.560533 148.48H810.496a31.1296 31.1296 0 0 1 31.095467 31.095467v112.896a31.112533 31.112533 0 0 1-31.095467 30.993066zM615.560533 165.546667a14.045867 14.045867 0 0 0-14.0288 14.0288v112.896a14.0288 14.0288 0 0 0 14.0288 14.011733H810.496a14.0288 14.0288 0 0 0 14.0288-14.011733v-112.981334A14.045867 14.045867 0 0 0 810.496 165.546667zM811.3664 323.720533H621.789867a8.533333 8.533333 0 0 1-8.533334-9.386666l6.690134-65.877334a18.9952 18.9952 0 0 1 35.413333-7.406933l5.922133 10.530133a10.24 10.24 0 0 0 17.4592-2.696533l13.653334-39.901867a23.330133 23.330133 0 0 1 41.728-5.0176l30.634666 47.9232a1.911467 1.911467 0 0 0 3.208534 0 15.36 15.36 0 0 1 26.709333 2.730667L819.2 311.825067a8.533333 8.533333 0 0 1-7.850667 11.946666z m-180.138667-17.066666h167.253334l-18.295467-42.666667a19.029333 19.029333 0 0 1-29.781333-2.8672l-30.634667-47.940267a6.2464 6.2464 0 0 0-11.195733 1.348267l-13.653334 40.123733c0 0.119467-0.085333 0.238933-0.136533 0.375467a27.409067 27.409067 0 0 1-47.3088 6.519467 7.304533 7.304533 0 0 1-0.631467-0.9728l-6.263466-11.1104a1.911467 1.911467 0 0 0-3.584 0.750933zM621.056 502.2208a72.635733 72.635733 0 0 1-29.3376-6.5024l7.5264-15.36-3.754667 7.662933 3.7376-7.68c0.170667 0 17.9712 8.533333 34.133334 2.7648 8.891733-3.1744 15.957333-10.24 20.992-21.026133 15.5136-33.262933 30.498133-50.875733 47.1552-55.432533 9.813333-2.696533 19.6608-0.7168 29.269333 5.853866 6.980267 4.7616 19.285333 14.8992 31.1808 24.712534 7.424 6.109867 14.4384 11.946667 19.541333 15.854933a25.7024 25.7024 0 0 0 18.141867 5.512533c11.3664-1.0752 20.138667-7.168 26.077867-18.107733l15.0016 8.157867c-10.990933 20.206933-27.528533 25.8048-39.458134 26.9312a42.666667 42.666667 0 0 1-30.242133-9.0112c-5.290667-4.113067-12.3904-9.966933-19.9168-16.1792-11.0592-9.1136-23.6032-19.438933-29.952-23.773867-5.444267-3.720533-10.24-4.829867-15.138133-3.498667-11.144533 3.054933-23.313067 18.602667-36.1984 46.1824-7.0656 15.1552-17.4592 25.224533-30.890667 29.952a53.640533 53.640533 0 0 1-17.8688 2.986667z" /></svg>