<?xml version="1.0" standalone="no"?><!DOCTYPE svg PUBLIC "-//W3C//DTD SVG 1.1//EN" "http://www.w3.org/Graphics/SVG/1.1/DTD/svg11.dtd"><svg class="icon" width="64px" height="64.00px" viewBox="0 0 1024 1024" version="1.1" xmlns="http://www.w3.org/2000/svg"><path fill="#000000" d="M838.528 793.92C873.344 764.544 896 721.152 896 672 896 583.616 824.384 512 736 512 647.616 512 576 583.616 576 672c0 49.152 22.656 92.544 57.472 121.92C561.6 831.232 512 905.408 512 992c0 10.944 1.728 21.44 3.2 32L576 1024l3.264 0 313.536 0L896 1024l60.8 0c1.536-10.56 3.2-21.056 3.2-32C960 905.408 910.4 831.232 838.528 793.92zM736 576c52.928 0 96 43.072 96 96S788.928 768 736 768 640 724.928 640 672 683.072 576 736 576zM579.264 960c14.848-72.96 79.488-128 156.736-128s141.888 55.04 156.736 128L579.264 960zM256 857.152 256 614.656C256 593.728 279.04 576 299.968 576l234.496 0c10.304-21.568 23.68-41.344 40-58.432C564.416 514.24 553.856 512 542.656 512L299.968 512C243.52 512 192 558.208 192 614.656l0 200.64C128 750.72 66.688 653.056 66.688 544c0-33.344 7.616-65.408 16.32-96L736 448l23.68 0c0.256 0.768 0.32 1.664 0.512 2.432 24.64 2.688 45.44 8.832 67.072 18.88C801.792 329.216 704 213.44 576 160L576 0 256 0l0 160c-128 62.72-253.312 211.008-253.312 384 0 147.2 77.952 276.224 193.344 350.144 20.224 12.992 42.24 24.448 64.64 33.856 49.28 20.544 103.616 32 160.32 32 10.176 0 20.352-0.768 30.4-1.536 2.688-22.72 6.528-44.672 14.336-65.664C450.688 894.784 434.24 896 418.688 896 361.024 896 320 881.792 256 857.152zM320 64l192 0 0 64L421.312 128 320 128 320 64zM421.312 192c136.448 0 254.72 78.208 313.152 192L108.16 384C166.592 270.208 284.864 192 421.312 192zM421.312 640c-52.992 0-96 43.008-96 96s43.008 96 96 96 96-43.008 96-96S474.368 640 421.312 640zM421.312 768c-17.664 0-32-14.336-32-32s14.336-32 32-32 32 14.336 32 32S438.976 768 421.312 768z" /></svg>