<?xml version="1.0" standalone="no"?><!DOCTYPE svg PUBLIC "-//W3C//DTD SVG 1.1//EN" "http://www.w3.org/Graphics/SVG/1.1/DTD/svg11.dtd"><svg class="icon" width="64px" height="64.00px" viewBox="0 0 1024 1024" version="1.1" xmlns="http://www.w3.org/2000/svg"><path d="M0 0h1024v1024H0z" fill="#D8D8D8" opacity=".01" /><path d="M210.858667 570.325333a42.666667 42.666667 0 0 1 59.136 11.946667l8.576 12.672 16.554666 23.978667c6.784 9.770667 11.818667 17.194667 16.597334 24.618666 27.306667 42.154667 42.197333 76.842667 46.421333 121.429334V917.333333a42.666667 42.666667 0 0 1-85.333333 0l0.213333-148.138666c-2.432-24.362667-12.373333-47.530667-32.938667-79.274667-4.266667-6.570667-8.832-13.397333-15.146666-22.528 0 0.085333-12.970667-18.645333-16.768-24.234667-3.370667-4.864-6.4-9.386667-9.258667-13.696a42.666667 42.666667 0 0 1 11.946667-59.136zM481.408 64c180.565333 1.877333 320.256 109.610667 331.136 283.818667l0.426667 9.472 76.501333 121.6a42.666667 42.666667 0 0 1 6.272 17.92l0.256 4.778666c0 54.528-24.533333 93.525333-64.042667 114.517334-5.717333 2.986667-11.349333 5.546667-16.853333 7.594666l-1.450667 0.426667-0.213333 6.229333a326.442667 326.442667 0 0 1-11.093333 68.266667l-4.181334 13.824c-23.04 69.802667-70.101333 118.741333-142.378666 133.973333l-8.064 1.493334V917.333333a42.666667 42.666667 0 0 1-37.674667 42.368l-4.992 0.298667a42.666667 42.666667 0 0 1-42.666667-42.666667v-108.501333a42.666667 42.666667 0 0 1 42.666667-42.666667c61.610667 0 94.848-28.202667 112.085333-80.384a251.093333 251.093333 0 0 0 10.965334-92.330666 42.666667 42.666667 0 0 1 42.453333-46.677334c4.010667 0 13.141333-1.621333 21.418667-5.973333 9.728-5.205333 15.872-12.885333 17.92-27.136l0.042666-0.853333-75.52-120.106667a42.666667 42.666667 0 0 1-6.229333-17.92l-0.298667-4.778667c0-135.850667-102.528-219.136-247.381333-220.629333-71.936-0.768-130.218667 16.469333-173.866667 49.066667A42.666667 42.666667 0 1 1 255.573333 130.090667c59.349333-44.373333 135.936-66.986667 225.834667-66.048z" fill="#313233" /><path d="M209.578667 257.578667c5.418667-3.157333 13.610667-6.186667 24.576-9.045334 10.965333-2.858667 22.016-4.309333 33.152-4.309333 15.914667 0 29.994667 2.304 42.24 6.912 12.245333 4.608 20.096 11.861333 23.594666 21.717333 5.717333 16.554667 11.946667 35.797333 18.602667 57.728 6.698667 21.930667 13.397333 44.586667 20.053333 67.968a12954.794667 12954.794667 0 0 1 36.266667 129.536 39.381333 39.381333 0 0 1-17.194667 10.752 81.621333 81.621333 0 0 1-27.178666 4.053334c-7.637333 0-14.08-0.64-19.328-1.92a34.389333 34.389333 0 0 1-12.885334-5.717334 28.16 28.16 0 0 1-8.106666-10.026666 86.912 86.912 0 0 1-5.504-14.293334l-8.533334-32.938666H222.890667c-2.56 9.557333-5.077333 19.413333-7.637334 29.610666-2.56 10.154667-5.077333 20.053333-7.637333 29.568a121.173333 121.173333 0 0 1-14.08 4.053334c-4.906667 1.109333-10.88 1.664-17.877333 1.664-16.213333 0-28.202667-2.773333-36.010667-8.362667A26.88 26.88 0 0 1 128 511.402667c0-4.437333 0.64-8.917333 1.92-13.354667 1.28-4.437333 2.688-9.685333 4.266667-15.786667 2.261333-8.533333 5.333333-19.2 9.301333-31.914666 4.010667-12.757333 8.362667-26.453333 13.141333-41.301334 4.778667-14.762667 9.856-29.952 15.274667-45.525333l15.274667-44.16a1958.4 1958.4 0 0 1 22.4-61.781333zM266.837333 319.146667c-4.437333 13.354667-9.472 28.202667-15.018666 44.586666-5.546667 16.384-10.581333 33.024-15.018667 49.877334h59.136a2510.506667 2510.506667 0 0 0-13.610667-50.346667c-4.608-16.384-8.789333-31.104-12.629333-44.117333h-2.858667zM530.688 536.192a175.061333 175.061333 0 0 1-38.656 4.266667c-7.338667 0.042667-13.738667-0.512-19.328-1.621334a34.304 34.304 0 0 1-14.08-5.973333 25.770667 25.770667 0 0 1-8.576-11.946667 58.154667 58.154667 0 0 1-2.858667-20.010666V249.002667c3.498667-0.64 9.045333-1.536 16.682667-2.645334 7.68-1.109333 14.933333-1.664 21.973333-1.664 7.296 0 13.738667 0.554667 19.285334 1.706667 5.546667 1.066667 10.24 3.072 14.08 5.973333 3.84 2.816 6.698667 6.826667 8.618666 11.904 1.877333 5.077333 2.858667 11.733333 2.858667 20.053334v251.861333z" fill="#313233" /></svg>