<?xml version="1.0" standalone="no"?><!DOCTYPE svg PUBLIC "-//W3C//DTD SVG 1.1//EN" "http://www.w3.org/Graphics/SVG/1.1/DTD/svg11.dtd"><svg class="icon" width="64px" height="64.00px" viewBox="0 0 1024 1024" version="1.1" xmlns="http://www.w3.org/2000/svg"><path fill="#000000" d="M553.984 751.616c0-127.488 103.424-231.424 230.4-231.424 12.8 0 25.088 1.024 37.376 3.072l2.048-34.304c0.512-6.656 9.216-8.704 12.288-3.072l29.184 49.152c11.776 4.608 23.04 9.728 33.792 15.872l14.848-12.8c2.048-2.048 3.072-5.12 1.536-7.68l-82.944-185.344c-1.024-2.56-3.584-4.096-6.144-4.096h-38.912c-2.048 0-4.096 1.024-5.12 2.56l-43.52 53.248c-2.56 3.072-7.68 3.072-10.24 0L683.52 343.04c-1.536-1.536-3.072-2.56-5.12-2.56h-40.96c-3.072 0-5.632-2.048-6.656-4.608l-11.264-36.352c-1.024-2.56-3.584-4.608-6.656-4.608h-88.576c-5.12 0-8.192 5.632-5.632 10.24 1.024 2.048 1.536 4.608 0.512 6.656L511.488 327.68c-0.512 1.024-1.024 2.56-0.512 4.096l21.504 156.672c0.512 2.048-0.512 4.096-2.048 5.632l-32.768 33.28v3.072l-1.536-1.536-1.536 1.536v-3.072l-32.768-33.28c-1.536-1.536-2.048-3.584-2.048-5.632L481.28 331.776c0-1.536 0-2.56-0.512-4.096l-7.68-15.872c-1.024-2.048-1.024-4.608 0-6.656 2.56-4.608-0.512-10.24-5.632-10.24H379.904c-2.56 0-5.12 1.536-6.144 4.096l-16.384 37.888c-1.024 2.56-3.584 4.096-6.144 4.096h-34.304c-2.048 0-4.096 1.024-5.12 2.56l-43.008 53.248c-2.56 3.072-7.68 3.072-10.24 0L212.992 343.04c-1.536-1.536-3.072-2.56-5.12-2.56h-47.104c-2.56 0-5.12 1.536-6.144 4.096l-89.6 199.168c-1.024 2.56-0.512 6.144 2.048 7.68l22.528 18.432c3.072 2.56 7.68 2.048 9.728-1.536l50.176-71.68c3.584-5.12 11.776-3.072 12.288 3.584l4.608 99.328v0.512l-11.264 286.72c0 3.584 3.072 7.168 6.656 7.168H220.16c3.584 0 6.656-2.56 6.656-6.144l14.848-238.08c0-3.584 3.072-6.144 6.656-6.144h19.968c3.584 0 6.656 2.56 6.656 6.656l11.776 237.568c0 3.584 3.072 6.656 6.656 6.656h62.976c4.096 0 6.656-3.072 6.656-7.168l-16.896-287.232v-1.024l0.512-13.312c0.512-5.12 6.656-8.192 10.752-5.12l28.672 21.504c2.048 1.536 2.56 3.584 2.56 5.632l-19.456 340.48c0 4.096 3.072 7.168 6.656 7.168h77.312c3.584 0 6.656-2.56 6.656-6.656l14.336-286.72c0-3.584 3.072-6.656 6.656-6.656h26.624c3.584 0 6.656 2.56 6.656 6.144l18.432 286.72c0.512 3.584 3.072 6.144 6.656 6.144h72.704c3.584 0 6.656-3.072 6.656-6.656l-1.536-36.864c-38.4-40.96-62.976-97.28-62.976-159.232zM732.672 325.12c44.032 0 79.872-35.84 79.872-80.384 0-21.504-8.192-41.984-23.552-56.832s-35.328-23.552-56.832-23.552c-21.504 0-41.472 8.192-56.832 23.552-14.848 14.848-23.552 35.84-23.552 56.832 0 21.504 8.192 41.984 23.552 56.832s35.84 23.552 57.344 23.552zM397.312 168.96a100.352 100.352 0 1 0 200.704 0 100.352 100.352 0 1 0-200.704 0ZM261.12 325.12c44.032 0 79.872-35.84 79.872-80.384 0.512-44.544-35.84-80.384-79.872-80.384-21.504 0-41.472 8.192-56.832 23.552-14.848 14.848-23.552 35.84-23.552 56.832 0.512 44.032 36.352 80.384 80.384 80.384zM784.384 575.488c-96.768 0-175.616 78.848-175.616 176.128s78.848 176.128 175.616 176.128 175.616-78.848 175.616-176.128-78.848-176.128-175.616-176.128z m23.552 293.888h-46.592v-47.104h46.592v47.104z m0-94.208h-46.592v-141.312h46.592v141.312z" /></svg>