<?xml version="1.0" standalone="no"?><!DOCTYPE svg PUBLIC "-//W3C//DTD SVG 1.1//EN" "http://www.w3.org/Graphics/SVG/1.1/DTD/svg11.dtd"><svg class="icon" width="64px" height="64.00px" viewBox="0 0 1024 1024" version="1.1" xmlns="http://www.w3.org/2000/svg"><path fill="#000000" d="M812.356601 10.039216H404.011503c-111.167582 0-201.604183 89.984837-201.604183 200.583529 0 19.225098 15.728105 34.869542 35.053595 34.869543s35.053595-15.644444 35.053595-34.869543c0-72.215425 59.04732-130.978301 131.647582-130.978301h408.478954c72.583529 0 131.647582 58.762876 131.647581 130.978301v602.737778c0 72.215425-59.04732 130.978301-131.647581 130.978301h-196.601307v6.60915l-100.007321-0.133856v-6.609151h-112.138039c-31.489673 0-62.059085-11.39451-86.036078-32.04183-7.027451-6.140654-16.029281-9.16915-25.415948-8.499869-9.286275 0.669281-17.769412 4.852288-23.910065 11.81281-6.123922 6.943791-9.135686 15.895425-8.49987 25.215164 0.652549 9.286275 4.852288 17.75268 11.846275 23.876601 36.843922 31.841046 83.710327 49.376209 131.998954 49.376209h408.478954C923.524183 1013.960784 1013.960784 923.975948 1013.960784 813.377255V210.505621C1013.960784 99.973856 923.524183 10.039216 812.356601 10.039216zM718.222222 525.134641s-124.519739 26.470065-158.987712 35.856732c-34.066405 9.236078-76.398431-57.775686-87.843137-60.252027-7.311895 20.965229-30.753464 82.739869-44.67451 124.653595 21.651242-0.686013 134.307974 33.514248 138.306928 53.358432 4.684967 20.128627 57.223529 237.862484 57.223529 237.862483s22.337255 46.749281-40.96 63.983268c-63.297255 17.100131-66.191895-35.020131-66.191895-35.020131s-44.122353-166.985621-47.987451-177.192156c-3.731242-10.07268-86.036078-27.022222-104.926536-21.918955-19.024314 5.237124-59.699869 147.810719-99.973856 157.465098-51.701961 12.54902-202.976209-79.293072-202.976209-79.293072s-59.699869-14.891503-47.569151-70.876862c12.415163-55.700915 70.458562-40.407843 70.458562-40.407843s107.135163 58.88 119.550327 51.986405c12.54902-7.027451 19.576471-47.703007 37.914771-87.006536 0.686013-14.891503 42.750327-132.919216 42.750327-132.919216s23.307712-78.590327 14.071634-83.559738c-12.816732-6.759739-26.068497 7.730196-33.095948 19.710326-7.027451 11.996863-34.752418 61.088627-81.217254 125.071896-41.361569 56.955817-114.999216 4.13281-84.39634-49.091765 25.51634-44.256209 93.214118-170.984575 141.887581-194.844444 49.091765-23.993725 133.621961-37.362614 205.736994-20.546928 72.399477 16.547974 123.13098 98.451242 137.202614 109.34379 13.78719 10.474248 111.284706-21.099085 111.284706-21.099085s55.433203-19.308758 69.220392 31.439478c13.78719 50.748235-44.808366 63.297255-44.808366 63.297255zM490.28183 316.36915c-51.015948 13.78719-103.002353-15.711373-116.789542-66.325751-13.653333-50.329935 16.129673-102.31634 67.296209-116.237386 51.015948-13.78719 103.136209 16.129673 116.789542 66.459608 13.78719 50.597647-16.414118 102.31634-67.296209 116.103529z" /></svg>