<?xml version="1.0" standalone="no"?><!DOCTYPE svg PUBLIC "-//W3C//DTD SVG 1.1//EN" "http://www.w3.org/Graphics/SVG/1.1/DTD/svg11.dtd"><svg class="icon" width="64px" height="64.00px" viewBox="0 0 1024 1024" version="1.1" xmlns="http://www.w3.org/2000/svg"><path fill="#000000" d="M704 448a32 32 0 0 1-32 32H352a32 32 0 0 1 0-64h320a32 32 0 0 1 32 32z m-32 96H352a32 32 0 0 0 0 64h320a32 32 0 0 0 0-64z m352-128v96a128.144 128.144 0 0 1-128 128h-20.788c-26.24 57.52-77.02 107.996-150.528 148.832-84.088 46.712-174.096 67.84-199.68 73.2a62.896 62.896 0 0 1-26.012 0c-25.58-5.36-115.588-26.488-199.68-73.2-73.504-40.84-124.28-91.308-150.524-148.832H128a128.144 128.144 0 0 1-128-128v-96a128.144 128.144 0 0 1 128-128h4.124a64.152 64.152 0 0 1 38.004-37.732l320-116.364a64.1 64.1 0 0 1 43.744 0l320 116.36a64.16 64.16 0 0 1 38 37.736H896a128.144 128.144 0 0 1 128 128zM130.212 576a234.68 234.68 0 0 1-2.212-32V352a64.072 64.072 0 0 0-64 64v96a64.072 64.072 0 0 0 64 64zM832 544V310.416l-320-116.364-320 116.36V544c0 183.016 287.36 248.528 320.124 255.396C544.644 792.528 832 727.016 832 544z m128-128a64.072 64.072 0 0 0-64-64v192a234.68 234.68 0 0 1-2.212 32H896a64.072 64.072 0 0 0 64-64z" /></svg>