<?xml version="1.0" standalone="no"?><!DOCTYPE svg PUBLIC "-//W3C//DTD SVG 1.1//EN" "http://www.w3.org/Graphics/SVG/1.1/DTD/svg11.dtd"><svg class="icon" width="64px" height="64.00px" viewBox="0 0 1024 1024" version="1.1" xmlns="http://www.w3.org/2000/svg"><path fill="#000000" d="M708.608 949.248H315.392c-50.176 0-91.648-41.984-91.648-93.184V167.936c0-51.2 40.96-93.184 91.648-93.184h393.216c50.176 0 91.648 41.984 91.648 93.184v688.128c0 51.712-41.472 93.184-91.648 93.184zM315.392 138.752c-15.36 0-27.648 13.312-27.648 29.184v688.128c0 15.872 12.288 29.184 27.648 29.184h393.216c15.36 0 27.648-13.312 27.648-29.184V167.936c0-15.872-12.288-29.184-27.648-29.184H315.392zM554.496 266.752H469.504c-17.92 0-32.256-14.336-32.256-32.256s14.336-32.256 32.256-32.256h85.504c17.92 0 32.256 14.336 32.256 32.256-0.512 17.92-14.848 32.256-32.768 32.256zM597.504 821.248H426.496c-17.92 0-32.256-14.336-32.256-32.256s14.336-32.256 32.256-32.256h170.496c17.92 0 32.256 14.336 32.256 32.256s-14.336 32.256-31.744 32.256z" /></svg>