<?xml version="1.0" standalone="no"?><!DOCTYPE svg PUBLIC "-//W3C//DTD SVG 1.1//EN" "http://www.w3.org/Graphics/SVG/1.1/DTD/svg11.dtd"><svg class="icon" width="64px" height="64.00px" viewBox="0 0 1024 1024" version="1.1" xmlns="http://www.w3.org/2000/svg"><path fill="#000000" d="M186.88 148.48c-3.2-3.84-8.32-4.48-14.08-5.76H97.92c-6.4 0.64-10.24 1.92-14.08 5.76-3.84 3.84-6.4 8.32-6.4 14.08V236.8c0.64 10.24 8.96 19.84 19.84 19.84H172.8c10.88 0 19.84-8.96 19.84-19.84V162.56c0-5.76-1.92-10.24-5.76-14.08z m-19.2 82.56H103.04v-62.72h65.28v62.72zM186.88 321.92c-3.2-3.84-8.32-4.48-14.08-5.76H97.92c-6.4 0.64-10.24 1.92-14.08 5.76-3.84 3.84-6.4 8.32-6.4 14.08V409.6c0.64 10.24 8.96 19.84 19.84 19.84H172.8c10.88 0 19.84-8.96 19.84-19.84V336.64c0-5.76-1.92-10.88-5.76-14.72z m-19.2 82.56H103.04v-62.72h65.28v62.72zM186.88 496c-3.2-3.84-8.32-4.48-14.08-5.76H97.92c-6.4 0.64-10.24 1.92-14.08 5.76-3.84 3.84-6.4 8.32-6.4 14.08v73.6c0.64 10.24 8.96 19.84 19.84 19.84H172.8c10.88 0 19.84-8.96 19.84-19.84V510.08c0-5.76-1.92-10.24-5.76-14.08z m-19.2 82.56H103.04v-62.72h65.28v62.72zM186.88 669.44c-3.2-3.84-8.32-4.48-14.08-5.76H97.92c-6.4 0.64-10.24 1.92-14.08 5.76-3.84 3.84-6.4 8.32-6.4 14.08v73.6c0.64 10.24 8.96 19.84 19.84 19.84H172.8c10.88 0 19.84-8.96 19.84-19.84v-73.6c0-5.12-1.92-10.24-5.76-14.08z m-19.2 82.56H103.04v-62.72h65.28v62.72zM335.36 148.48c-3.2-3.84-8.32-4.48-14.08-5.76H247.04c-6.4 0.64-10.24 1.92-14.08 5.76-3.84 3.84-6.4 8.32-6.4 14.08V236.8c0.64 10.24 8.96 19.84 19.84 19.84h75.52c10.88 0 19.84-8.96 19.84-19.84V162.56c-0.64-5.76-2.56-10.24-6.4-14.08z m-18.56 82.56H251.52v-62.72h65.28v62.72zM335.36 321.92c-3.2-3.84-8.32-4.48-14.08-5.76H247.04c-6.4 0.64-10.24 1.92-14.08 5.76-3.84 3.84-6.4 8.32-6.4 14.08V409.6c0.64 10.24 8.96 19.84 19.84 19.84h75.52c10.88 0 19.84-8.96 19.84-19.84V336.64c-0.64-5.76-2.56-10.88-6.4-14.72z m-18.56 82.56H251.52v-62.72h65.28v62.72zM335.36 496c-3.2-3.84-8.32-4.48-14.08-5.76H247.04c-6.4 0.64-10.24 1.92-14.08 5.76-3.84 3.84-6.4 8.32-6.4 14.08v73.6c0.64 10.24 8.96 19.84 19.84 19.84h75.52c10.88 0 19.84-8.96 19.84-19.84V510.08c-0.64-5.76-2.56-10.24-6.4-14.08z m-18.56 82.56H251.52v-62.72h65.28v62.72zM335.36 669.44c-3.2-3.84-8.32-4.48-14.08-5.76H247.04c-6.4 0.64-10.24 1.92-14.08 5.76-3.84 3.84-6.4 8.32-6.4 14.08v73.6c0.64 10.24 8.96 19.84 19.84 19.84h75.52c10.88 0 19.84-8.96 19.84-19.84v-73.6c-0.64-5.12-2.56-10.24-6.4-14.08z m-18.56 82.56H251.52v-62.72h65.28v62.72zM484.48 148.48c-3.2-3.84-8.32-4.48-14.08-5.76H396.16c-6.4 0.64-10.24 1.92-14.08 5.76-3.84 3.84-6.4 8.32-6.4 14.08V236.8c0.64 10.24 8.96 19.84 19.84 19.84h75.52c10.88 0 19.84-8.96 19.84-19.84V162.56c-0.64-5.76-2.56-10.24-6.4-14.08z m-19.2 82.56H400v-62.72h65.28v62.72zM484.48 321.92c-3.2-3.84-8.32-4.48-14.08-5.76H396.16c-6.4 0.64-10.24 1.92-14.08 5.76-3.84 3.84-6.4 8.32-6.4 14.08V409.6c0.64 10.24 8.96 19.84 19.84 19.84h75.52c10.88 0 19.84-8.96 19.84-19.84V336.64c-0.64-5.76-2.56-10.88-6.4-14.72z m-19.2 82.56H400v-62.72h65.28v62.72zM484.48 496c-3.2-3.84-8.32-4.48-14.08-5.76H396.16c-6.4 0.64-10.24 1.92-14.08 5.76-3.84 3.84-6.4 8.32-6.4 14.08v73.6c0.64 10.24 8.96 19.84 19.84 19.84h75.52c10.88 0 19.84-8.96 19.84-19.84V510.08c-0.64-5.76-2.56-10.24-6.4-14.08z m-19.2 82.56H400v-62.72h65.28v62.72zM484.48 669.44c-3.2-3.84-8.32-4.48-14.08-5.76H396.16c-6.4 0.64-10.24 1.92-14.08 5.76-3.84 3.84-6.4 8.32-6.4 14.08v73.6c0.64 10.24 8.96 19.84 19.84 19.84h75.52c10.88 0 19.84-8.96 19.84-19.84v-73.6c-0.64-5.12-2.56-10.24-6.4-14.08z m-19.2 82.56H400v-62.72h65.28v62.72zM0 1022.72V82.56c0.64-24.32 19.2-42.24 42.24-42.24h483.2c23.68 0 42.24 18.56 42.24 42.24v940.16H150.4v-144h-30.08v144.64H0z m77.44-55.68v-89.6c0.64-24.32 19.2-42.24 42.24-42.24h30.08c23.68 0 42.24 18.56 42.24 42.24v89.6h320V95.36H55.04V966.4h22.4zM1014.4 270.72l-20.48-17.92c20.48-60.16-8.96-91.52-19.2-100.48-14.72-12.16-28.8-10.88-40.96-7.04l-67.84-58.88c4.48-11.52 3.84-24.96-7.04-33.92l-47.36-41.6c-16.64-14.72-42.24-12.8-57.6 3.84L636.16 149.76c-14.72 17.28-12.8 42.88 3.84 58.24l47.36 41.6c10.88 9.6 23.68 7.68 34.56 2.56l67.2 59.52c-1.92 12.16-1.28 26.88 12.8 39.04 16 14.08 49.28 32.64 101.76 5.76 0 0.64 0.64 0.64 0.64 0.64l20.48 17.92c5.12 4.48 12.16 7.04 17.92 7.04 7.04 0 15.36-2.56 21.76-10.88l51.84-60.16c10.88-12.16 9.6-30.08-1.92-40.32z m-70.4 81.92l-20.48-17.28c-0.64-1.28-1.92-1.92-3.2-2.56l-2.56-19.2-20.48 12.16c-21.76 13.44-53.12 24.96-77.44 3.2-3.2-3.2-4.48-4.48-1.92-19.84l1.92-8.32-99.2-87.04-9.6 9.6c-1.92 2.56-4.48 3.84-6.4 4.48l-46.08-40.96c-4.48-4.48-5.12-12.16-1.28-16.64l117.76-134.4c3.84-4.48 11.52-5.12 16.64-1.28l46.72 40.32c0 1.28-1.92 5.12-3.2 7.04l-8.32 10.88 99.84 87.04 7.68-2.56c14.72-4.48 16.64-3.84 19.84-0.64 7.04 5.76 28.16 30.08 6.4 80l-10.88 21.76 23.68-1.28 20.48 16-49.92 59.52zM728.32 243.2c-3.84 0-7.04-1.92-10.88-4.48-5.76-5.76-5.76-15.36 0-21.12l42.88-42.88c5.76-5.76 15.36-5.76 21.12 0 5.76 5.76 5.76 15.36 0 21.12l-42.88 42.88c-3.2 3.2-7.04 4.48-10.24 4.48z m36.48 37.12c-3.84 0-7.04-1.92-10.88-4.48-5.76-5.76-5.76-15.36 0-21.12l42.88-42.88c5.76-5.76 15.36-5.76 21.12 0 5.76 5.76 5.76 15.36 0 21.12l-42.88 42.88c-2.56 2.56-6.4 4.48-10.24 4.48z m0 0" /></svg>