<?xml version="1.0" standalone="no"?><!DOCTYPE svg PUBLIC "-//W3C//DTD SVG 1.1//EN" "http://www.w3.org/Graphics/SVG/1.1/DTD/svg11.dtd"><svg class="icon" width="64px" height="64.00px" viewBox="0 0 1024 1024" version="1.1" xmlns="http://www.w3.org/2000/svg"><path fill="#000000" d="M547.413333 51.2v3.541333a458.325333 458.325333 0 0 1 421.973334 421.802667h3.413333v70.912h-3.413333a458.325333 458.325333 0 0 1-421.973334 421.717333v3.626667h-70.826666v-3.541333a458.24 458.24 0 0 1-421.973334-421.802667H51.2v-70.912h3.413333a458.24 458.24 0 0 1 421.973334-421.802667V51.2h70.826666z m6.826667 61.44v144.725333h-74.24V112.64a405.802667 405.802667 0 0 0-367.36 367.36h144.810667v74.24H112.64a405.802667 405.802667 0 0 0 367.36 367.36v-144.725333h74.24V921.6a405.802667 405.802667 0 0 0 367.36-367.36h-144.810667v-74.24H921.6a405.802667 405.802667 0 0 0-367.36-367.36z m150.869333 194.56l37.290667 261.12h-78.592l10.24 174.08H375.552l10.24-174.08H307.2l37.290667-261.12h360.618666z m-118.144 155.434667h-113.962666v34.986666h36.864v58.282667h40.234666v-58.325333h36.864v-34.986667z m-2.858666-118.144h-118.613334a62.293333 62.293333 0 0 0 59.306667 43.52 62.293333 62.293333 0 0 0 59.306667-43.52z" /></svg>