<?xml version="1.0" standalone="no"?><!DOCTYPE svg PUBLIC "-//W3C//DTD SVG 1.1//EN" "http://www.w3.org/Graphics/SVG/1.1/DTD/svg11.dtd"><svg class="icon" width="64px" height="64.00px" viewBox="0 0 1024 1024" version="1.1" xmlns="http://www.w3.org/2000/svg"><path fill="#000000" d="M334.411093 639.808853l1.119574-0.69632 72.799573-47.786666a311.487147 311.487147 0 0 0 95.491413 14.86848 307.309227 307.309227 0 0 0 216.937814-88.4736c58.20416-57.275733 90.262187-133.48864 90.262186-214.603094S778.922667 145.77664 720.759467 88.569173a310.14912 310.14912 0 0 0-433.88928 0c-58.20416 57.344-90.248533 133.502293-90.248534 214.616747s32.07168 157.259093 90.248534 214.534827a308.811093 308.811093 0 0 0 56.1152 43.690666l-42.63936 27.962027C189.371733 655.89248 47.59552 772.000427 0.98304 948.251307a29.36832 29.36832 0 0 0-0.955733 6.3488 62.655147 62.655147 0 0 0 19.770026 47.47264 71.0656 71.0656 0 0 0 50.517334 19.114666h448.375466c14.158507 0 26.842453-8.901973 30.39232-21.95456 5.461333-19.974827-10.267307-37.92896-30.378666-37.942613H68.77184a6.239573 6.239573 0 0 1-4.491947-1.59744 4.410027 4.410027 0 0 1-1.010346-1.365333c42.871467-154.774187 170.88512-258.53952 271.141546-318.518614z m-69.50912-336.6912c0-129.2288 107.178667-234.359467 238.933334-234.359466s238.933333 105.130667 238.933333 234.359466-107.178667 234.359467-238.933333 234.359467-238.933333-105.14432-238.933334-234.359467zM620.78976 845.824m34.133333 0l2.389334 0q34.133333 0 34.133333 34.133333l0 109.909334q0 34.133333-34.133333 34.133333l-2.389334 0q-34.133333 0-34.133333-34.133333l0-109.909334q0-34.133333 34.133333-34.133333ZM790.842027 667.661653m34.133333 0l2.389333 0q34.133333 0 34.133334 34.133334l0 288.07168q0 34.133333-34.133334 34.133333l-2.389333 0q-34.133333 0-34.133333-34.133333l0-288.07168q0-34.133333 34.133333-34.133334ZM953.344 811.595093m34.133333 0l2.389334 0q34.133333 0 34.133333 34.133334l0 144.13824q0 34.133333-34.133333 34.133333l-2.389334 0q-34.133333 0-34.133333-34.133333l0-144.13824q0-34.133333 34.133333-34.133334Z" /></svg>