<?xml version="1.0" standalone="no"?><!DOCTYPE svg PUBLIC "-//W3C//DTD SVG 1.1//EN" "http://www.w3.org/Graphics/SVG/1.1/DTD/svg11.dtd"><svg class="icon" width="64px" height="56.89px" viewBox="0 0 1152 1024" version="1.1" xmlns="http://www.w3.org/2000/svg"><path fill="#000000" d="M1133.28626 131.88L1022.00626 18.74C1009.52626 6.24 993.18626 0 976.82626 0s-32.7 6.24-45.16 18.74L9.16626 928.28C-6.71374 944.2-1.19374 972.6 19.80626 979.66 103.38626 1007.72 197.00626 1024 289.64626 1024c145.92 0 289.46-40.38 387.74-138.7l200.9-200.08c23.44-23.34 24.36-60.78 4.22-86.32l23.18-137.66 227.6-238.84c24.96-25 24.96-65.52 0-90.52zM634.68626 839.2C556.80626 917.1 434.26626 960 289.64626 960c-65.66 0-133.16-8.76-197.94-25.54l523.34-524.76 220.66 229.32L634.68626 839.2z m209.4-404.28l-21 100.5-162.72-169.1C757.10626 273.78 976.44626 64 976.82626 64l112.72 113.36-245.46 257.56zM864.00626 256c-17.68 0-32 14.32-32 32s14.32 32 32 32 32-14.32 32-32-14.32-32-32-32z m64-64c0 17.68 14.32 32 32 32s32-14.32 32-32-14.32-32-32-32-32 14.32-32 32z" /></svg>