<?xml version="1.0" standalone="no"?><!DOCTYPE svg PUBLIC "-//W3C//DTD SVG 1.1//EN" "http://www.w3.org/Graphics/SVG/1.1/DTD/svg11.dtd"><svg class="icon" width="64px" height="64.00px" viewBox="0 0 1024 1024" version="1.1" xmlns="http://www.w3.org/2000/svg"><path d="M879.935901 1023.952982H205.881421a48.193767 48.193767 0 0 1-48.193767-48.193767V398.045251h84.53892v541.368811h602.492613V398.045251h83.363462v577.760982a48.193767 48.193767 0 0 1-48.193766 48.193767zM918.60846 55.070195l-279.277002 73.865763-24.625839-93.096252a48.193767 48.193767 0 0 0-22.333697-29.304161 48.193767 48.193767 0 0 0-36.521471-4.901659L369.669701 50.850301a48.193767 48.193767 0 0 0-34.20582 58.855169l24.590576 93.084497L80.777455 276.690995a48.193767 48.193767 0 0 0 24.625839 93.096252l837.772233-221.6208a48.193767 48.193767 0 0 0 34.241083-58.855169 48.193767 48.193767 0 0 0-58.855168-34.241083z"  /><path d="M403.33481 768.032325a64.556138 64.556138 0 1 0 31.737359 64.415084 68.035493 68.035493 0 0 0-12.436343-48.076221 64.826494 64.826494 0 0 0-19.301016-16.338863zM575.950778 638.626184a64.556138 64.556138 0 1 0 31.737358 64.415083 68.035493 68.035493 0 0 0-12.436342-48.076221 64.826494 64.826494 0 0 0-19.348035-16.338862zM575.950778 296.544476a64.556138 64.556138 0 1 0 31.737358 64.415083 68.035493 68.035493 0 0 0-12.436342-48.076221 64.826494 64.826494 0 0 0-19.348035-16.338862zM745.2402 768.032325a64.556138 64.556138 0 1 0 31.737358 64.415084 68.035493 68.035493 0 0 0-12.436342-48.076221 64.826494 64.826494 0 0 0-19.301016-16.338863zM404.909924 487.015646a64.556138 64.556138 0 1 0 31.737358 64.415083 68.035493 68.035493 0 0 0-12.436342-48.076221 64.826494 64.826494 0 0 0-19.348035-16.338862zM746.803559 487.015646a64.556138 64.556138 0 1 0 31.737358 64.415083 68.035493 68.035493 0 0 0-12.436343-48.076221 64.826494 64.826494 0 0 0-19.348034-16.338862zM849.138908 231.812019a64.556138 64.556138 0 1 0 31.737359 64.415083 68.035493 68.035493 0 0 0-12.436343-48.076221 64.826494 64.826494 0 0 0-19.301016-16.338862z" fill="#231815" /></svg>