<?xml version="1.0" standalone="no"?><!DOCTYPE svg PUBLIC "-//W3C//DTD SVG 1.1//EN" "http://www.w3.org/Graphics/SVG/1.1/DTD/svg11.dtd"><svg class="icon" width="64px" height="64.00px" viewBox="0 0 1024 1024" version="1.1" xmlns="http://www.w3.org/2000/svg"><path fill="#000000" d="M768.1536 492.4672l60.64128-60.64128 60.3392 60.3392-60.64128 60.6464 60.3392 60.3392-60.64128 60.64128-60.3392-60.3392-60.6464 60.64128-60.3392-60.3392 60.64128-60.6464L647.168 492.76928 707.80928 432.128l60.3392 60.3392z m-170.81856 303.36512L526.336 724.48H283.99104l-70.656 71.05024v14.70976h384v-14.40768z m84.94592-35.7632h0.384V896H128v-135.93088h0.08704l-0.08704-0.08192 120.66304-121.2672 0.08192 0.08704v-0.08704h313.17504v0.256l120.448 121.0112-0.08704 0.08192zM405.33504 209.92a148.95616 148.95616 0 0 1 105.59488 43.9552 150.46144 150.46144 0 0 1 43.73504 106.12736v85.76c0 82.88256-66.85696 150.07744-149.32992 150.07744C322.85696 595.84 256 528.64512 256 445.76256v-85.76c0-39.808 15.73376-77.9776 43.74016-106.12736A148.95616 148.95616 0 0 1 405.33504 209.92z m0 85.76c-35.34848 0-64 28.79488-64 64.32256v85.76c0 35.52256 28.65152 64.31744 64 64.31744 35.34336 0 64-28.79488 64-64.31744v-85.76c0-35.52768-28.65664-64.32256-64-64.32256z"  /></svg>