<?xml version="1.0" standalone="no"?><!DOCTYPE svg PUBLIC "-//W3C//DTD SVG 1.1//EN" "http://www.w3.org/Graphics/SVG/1.1/DTD/svg11.dtd"><svg class="icon" width="64px" height="64.00px" viewBox="0 0 1024 1024" version="1.1" xmlns="http://www.w3.org/2000/svg"><path fill="#000000" d="M750.3872 542.14656c-1.14688 6.18496 3.44064 14.90944 6.92224 19.8656 25.3952 34.816 51.93728 70.8608 78.4384 104.40704 16.1792 19.8656 23.10144 42.22976 25.3952 68.32128 3.4816 42.27072 8.06912 84.50048 11.55072 126.7712 1.14688 16.13824 2.29376 32.31744-16.13824 38.5024-15.03232 4.99712-26.54208-7.45472-31.17056-31.04768l-24.24832-126.7712c-2.29376-8.68352-6.92224-19.8656-12.6976-26.09152a4709.90848 4709.90848 0 0 0-140.73856-130.4576c-14.99136-13.68064-20.76672-26.13248-16.13824-47.22688 11.50976-45.99808 20.76672-91.99616 32.27648-141.7216-29.98272 17.44896-55.37792 32.3584-61.15328 70.8608-3.44064 27.36128-12.6976 53.4528-21.9136 78.31552-2.29376 7.45472-9.0112 20.2752-19.78368 16.13824-10.77248-4.096-9.05216-16.13824-7.90528-23.59296 6.9632-40.01792 15.07328-79.83104 24.24832-119.31648 3.44064-12.41088 10.36288-24.86272 19.61984-32.31744A3251.36384 3251.36384 0 0 1 693.8624 302.2848c32.27648-27.32032 71.51616-17.408 91.136 19.8656 5.7344 9.95328 10.40384 21.13536 13.84448 32.3584 20.76672 64.59392 56.5248 115.5072 110.75584 151.552 6.9632 4.99712 13.84448 21.17632 11.55072 27.36128-5.7344 14.90944-18.432 6.22592-27.68896 1.2288-6.9632-3.6864-13.84448-8.68352-20.76672-12.41088-40.38656-22.36416-80.77312-43.49952-88.8832-100.63872a8.47872 8.47872 0 0 0-5.7344 2.4576c-9.216 39.77216-18.432 78.31552-27.68896 118.08768z"  /><path fill="#000000" d="M612.84352 614.97344c21.46304 16.95744 41.69728 31.29344 59.55584 48.25088 4.79232 3.93216 7.168 14.336 5.98016 20.8896-7.168 49.5616-20.2752 95.15008-51.24096 134.26688-24.9856 32.60416-45.2608 69.09952-67.91168 104.32512-9.54368 15.64672-21.46304 26.09152-36.94592 14.336-15.48288-10.4448-10.73152-26.09152-3.56352-41.73824 14.29504-28.672 27.40224-58.65472 42.88512-86.016 29.77792-50.87232 42.88512-105.63584 46.4896-165.60128 1.18784-7.82336 2.37568-15.64672 4.75136-28.672zM751.04256 163.84c35.10272 0 62.09536 27.72992 62.09536 63.40608-1.35168 34.4064-27.0336 59.47392-62.09536 59.47392-36.4544 0-62.09536-26.4192-60.74368-62.09536C688.9472 188.94848 715.93984 163.84 751.04256 163.84z"  /><path fill="#000000" d="M273.6128 542.14656c1.14688 6.18496-3.44064 14.90944-6.92224 19.8656-25.3952 34.816-51.93728 70.8608-78.4384 104.40704-16.1792 19.8656-23.10144 42.22976-25.3952 68.32128-3.4816 42.27072-8.06912 84.50048-11.55072 126.7712-1.14688 16.13824-2.29376 32.31744 16.13824 38.5024 15.03232 4.99712 26.54208-7.45472 31.17056-31.04768l24.24832-126.7712c2.29376-8.68352 6.92224-19.8656 12.6976-26.09152a4709.90848 4709.90848 0 0 1 140.73856-130.4576c14.99136-13.68064 20.76672-26.13248 16.13824-47.22688-11.50976-45.99808-20.76672-91.99616-32.27648-141.7216 29.98272 17.44896 55.37792 32.3584 61.15328 70.8608 3.44064 27.36128 12.6976 53.4528 21.9136 78.31552 2.29376 7.45472 10.32192 14.58176 19.00544 11.01824 8.68352-3.56352 9.8304-11.0592 8.68352-18.47296a2184.47872 2184.47872 0 0 0-24.24832-119.31648c-3.44064-12.41088-10.36288-24.86272-19.61984-32.31744A3251.36384 3251.36384 0 0 0 330.1376 302.2848c-32.27648-27.32032-71.51616-17.408-91.136 19.8656-5.7344 9.95328-10.40384 21.13536-13.84448 32.3584-20.76672 64.59392-56.5248 115.5072-110.75584 151.552-6.9632 4.99712-13.84448 21.17632-11.55072 27.36128 5.7344 14.90944 18.432 6.22592 27.68896 1.2288 6.9632-3.6864 13.84448-8.68352 20.76672-12.41088 40.38656-22.36416 80.77312-43.49952 88.8832-100.63872 2.2528 0 4.58752 1.2288 5.7344 2.4576 9.216 39.77216 18.432 78.31552 27.68896 118.08768z"  /><path fill="#000000" d="M411.15648 614.97344c-21.46304 16.95744-41.69728 31.29344-59.55584 48.25088-4.79232 3.93216-7.168 14.336-5.98016 20.8896 7.168 49.5616 20.2752 95.15008 51.24096 134.26688 24.9856 32.60416 45.2608 69.09952 67.91168 104.32512 9.54368 15.64672 21.46304 26.09152 36.94592 14.336 15.48288-10.4448 10.73152-26.09152 3.56352-41.73824-14.29504-28.672-27.40224-58.65472-42.88512-86.016-29.77792-50.87232-42.88512-105.63584-46.4896-165.60128-1.18784-7.82336-2.37568-15.64672-4.75136-28.672zM272.95744 163.84c-35.10272 0-62.09536 27.72992-62.09536 63.40608 1.35168 34.4064 27.0336 59.47392 62.09536 59.47392 36.4544 0 62.09536-26.4192 60.74368-62.09536C335.0528 188.94848 308.06016 163.84 272.95744 163.84z"  /><path fill="#000000" d="M860.16 901.12a20.48 20.48 0 0 1 3.6864 40.63232L860.16 942.08h-696.32a20.48 20.48 0 0 1-3.6864-40.63232L163.84 901.12h696.32z"  /></svg>