<?xml version="1.0" standalone="no"?><!DOCTYPE svg PUBLIC "-//W3C//DTD SVG 1.1//EN" "http://www.w3.org/Graphics/SVG/1.1/DTD/svg11.dtd"><svg class="icon" width="64px" height="64.00px" viewBox="0 0 1024 1024" version="1.1" xmlns="http://www.w3.org/2000/svg"><path fill="#000000" d="M697.258667 85.333333a23.466667 23.466667 0 0 1 20.181333 11.648l46.677333 79.36a26.88 26.88 0 0 1 3.754667 13.738667v111.274667h44.458667c6.912 0 13.568 2.816 18.474666 7.808 4.906667 4.992 7.68 11.776 7.68 18.858666v42.666667a26.410667 26.410667 0 0 1-26.154666 26.666667h-44.458667v194.645333h-2.645333a206.08 206.08 0 0 0-138.581334 53.504V397.354667h-94.122666v288h59.733333a214.741333 214.741333 0 0 0-34.901333 96h-24.832v133.290666c0 13.269333-10.538667 24.021333-23.552 24.021334H414.848a23.210667 23.210667 0 0 1-16.682667-6.997334 24.149333 24.149333 0 0 1-6.869333-17.024v-133.290666H297.130667v133.290666c0 13.269333-10.496 24.021333-23.509334 24.021334H179.456a23.253333 23.253333 0 0 1-16.64-6.997334 24.192 24.192 0 0 1-6.869333-17.024v-133.290666H111.488a25.898667 25.898667 0 0 1-18.474667-7.850667 26.922667 26.922667 0 0 1-7.68-18.816v-42.666667c0-14.762667 11.690667-26.666667 26.154667-26.666666h44.458667v-288H111.488A26.410667 26.410667 0 0 1 85.333333 370.688v-42.666667c0-7.082667 2.773333-13.866667 7.68-18.858666a25.898667 25.898667 0 0 1 18.474667-7.808h44.458667V190.08c0-4.864 1.28-9.6 3.712-13.738667l46.72-79.36A23.466667 23.466667 0 0 1 226.56 85.333333a23.466667 23.466667 0 0 1 20.181333 11.648l46.677334 79.36a27.136 27.136 0 0 1 3.712 13.738667v111.274667h94.165333V190.08c0-4.864 1.28-9.6 3.754667-13.738667l46.677333-79.36A23.466667 23.466667 0 0 1 461.909333 85.333333a23.466667 23.466667 0 0 1 20.181334 11.648l46.677333 79.36a26.88 26.88 0 0 1 3.754667 13.738667v111.274667h94.122666V190.08c0-4.864 1.28-9.6 3.754667-13.738667l46.677333-79.36A23.466667 23.466667 0 0 1 697.258667 85.333333z m97.578666 811.648l7.253334 38.698667a141.098667 141.098667 0 0 1-57.6 0l7.296-38.698667c14.208 2.986667 28.842667 2.986667 43.050666 0z m-112.981333-49.237333c8.021333 12.629333 18.346667 23.466667 30.378667 32l-20.906667 32.810667a152.32 152.32 0 0 1-40.704-42.837334l31.232-21.973333z m182.912 0l31.232 21.973333a152.32 152.32 0 0 1-40.704 42.837334l-20.906667-32.853334c12.032-8.448 22.357333-19.328 30.378667-31.957333z m-91.477333-106.538667c22.229333 0 40.234667 18.944 40.234666 42.325334 0 23.338667-18.005333 42.282667-40.234666 42.282666-22.186667 0-40.234667-18.944-40.234667-42.282666 0-23.381333 18.048-42.325333 40.234667-42.325334z m119.978666 22.186667a150.186667 150.186667 0 0 1 0 57.216l-35.925333-7.253333c2.730667-14.08 2.730667-28.586667 0-42.752l35.925333-7.253334z m-264.661333-10.154667l36.821333 7.68c-2.816 14.933333-2.816 30.293333 0 45.226667l-36.821333 7.637333a163.797333 163.797333 0 0 1 0-60.544zM226.56 709.333333a23.637333 23.637333 0 0 0-22.869333 18.346667 24.149333 24.149333 0 0 0 12.117333 27.008 23.210667 23.210667 0 0 0 28.586667-5.674667 24.32 24.32 0 0 0 3.584-25.728 23.466667 23.466667 0 0 0-21.418667-13.952z m605.525333-39.296c15.701333 10.709333 29.184 24.490667 39.68 40.490667l-30.421333 20.736c-7.850667-11.946667-17.92-22.186667-29.610667-30.208l20.352-31.018667z m-140.757333-15.530666l20.906667 32.853333a113.834667 113.834667 0 0 0-30.378667 31.914667l-31.232-21.973334c10.794667-16.896 24.618667-31.488 40.704-42.794666zM391.296 397.354667H297.130667v288h94.165333v-288z m410.794667 233.984l-7.253334 38.741333a105.301333 105.301333 0 0 0-43.050666 0l-7.253334-38.741333a141.098667 141.098667 0 0 1 57.557334 0z m-340.224-306.005334a23.765333 23.765333 0 0 0-23.509334 24.021334c0 13.226667 10.496 23.978667 23.509334 23.978666a23.765333 23.765333 0 0 0 23.552-23.978666 23.765333 23.765333 0 0 0-23.552-24.021334z m-235.306667 0a23.765333 23.765333 0 0 0-23.552 24.021334c0 13.226667 10.538667 23.978667 23.552 23.978666a23.466667 23.466667 0 0 0 20.352-11.946666 24.405333 24.405333 0 0 0 0-24.021334 23.466667 23.466667 0 0 0-20.352-12.032z m470.656 0a23.765333 23.765333 0 0 0-23.509333 24.021334c0 13.226667 10.538667 23.978667 23.509333 23.978666a23.765333 23.765333 0 0 0 23.552-23.978666 23.765333 23.765333 0 0 0-23.552-24.021334z" /></svg>