<?xml version="1.0" standalone="no"?><!DOCTYPE svg PUBLIC "-//W3C//DTD SVG 1.1//EN" "http://www.w3.org/Graphics/SVG/1.1/DTD/svg11.dtd"><svg class="icon" width="64px" height="64.00px" viewBox="0 0 1024 1024" version="1.1" xmlns="http://www.w3.org/2000/svg"><path fill="#000000" d="M892.635429 620.544H131.657143a94.500571 94.500571 0 0 0-94.500572 94.500571v177.590858a94.500571 94.500571 0 0 0 94.208 94.500571H915.748571a69.339429 69.339429 0 0 0 71.387429-71.68v-200.704a94.500571 94.500571 0 0 0-94.500571-94.208z m-794.331429 272.091429v-177.590858a33.353143 33.353143 0 0 1 33.353143-33.060571h96.841143v243.712H131.364571a33.353143 33.353143 0 0 1-33.060571-33.060571z m827.392 22.820571c0 7.606857-2.633143 10.24-9.947429 10.24H289.938286v-243.712h602.697143a33.060571 33.060571 0 0 1 33.060571 32.768zM102.985143 589.824h4.388571A29.257143 29.257143 0 0 0 133.412571 555.885714a204.8 204.8 0 0 1 39.204572-146.285714c35.693714-43.885714 95.085714-68.169143 175.542857-72.557714 141.312-7.606857 240.201143-45.933714 292.571429-113.810286a182.857143 182.857143 0 0 0 39.789714-137.508571 29.257143 29.257143 0 0 0-35.401143-24.576 31.012571 31.012571 0 0 0-25.161143 35.401142 121.709714 121.709714 0 0 1-29.257143 89.819429c-39.789714 51.785143-125.513143 82.797714-245.76 89.234286-99.181714 5.558857-173.202286 37.741714-220.306285 95.670857a265.947429 265.947429 0 0 0-52.077715 192.512 30.72 30.72 0 0 0 30.427429 26.038857zM558.811429 380.342857c-282.624 3.218286-314.806857 158.281143-315.977143 165.010286a29.257143 29.257143 0 0 0 23.990857 35.401143h6.144a31.012571 31.012571 0 0 0 29.257143-24.283429c0-4.681143 29.257143-112.64 256.292571-115.273143a263.314286 263.314286 0 0 0 196.022857-78.994285C848.457143 263.314286 840.557714 113.810286 840.265143 107.666286a29.257143 29.257143 0 0 0-32.475429-29.257143 29.257143 29.257143 0 0 0-29.257143 32.182857c0 1.462857 5.558857 130.779429-68.169142 209.188571A202.166857 202.166857 0 0 1 558.811429 380.342857z" /></svg>