<?xml version="1.0" standalone="no"?><!DOCTYPE svg PUBLIC "-//W3C//DTD SVG 1.1//EN" "http://www.w3.org/Graphics/SVG/1.1/DTD/svg11.dtd"><svg class="icon" width="64px" height="57.54px" viewBox="0 0 1139 1024" version="1.1" xmlns="http://www.w3.org/2000/svg"><path fill="#000000" d="M544.377798 508.037147l91.89059-64.017624L434.699869 242.451003a57.872852 57.872852 0 0 1 81.840962-81.840963L732.9758 377.046008l145.061617-19.342282 151.204388-324.253967a57.872852 57.872852 0 0 1 104.900108 48.922184l-182.455229 391.305479a57.617862 57.617862 0 0 1-14.411466 19.189288l0.303989 1.137958-287.089346 211.884137a57.797855 57.797855 0 0 1-13.538498 13.273507L283.267488 966.810122a57.872852 57.872852 0 1 1-66.367537-94.811481l303.16875-212.264123-142.407716-107.098026L72.824298 639.786258a56.886889 56.886889 0 0 1-70.61538-39.972517 58.858816 58.858816 0 0 1 40.654491-71.828334l353.684875-101.145247 1.819933-3.299877 3.22388 1.859931 1.667938-0.455983 0.455983 1.668938 140.699779 81.423978z m239.455114-186.133093c-60.868741 0-110.245909-50.554124-110.245908-112.90181S722.963171 96.138432 783.831912 96.138432s110.245909 50.516125 110.245909 112.863812-49.377168 112.90081-110.245909 112.90081z m-307.45359 616.197134l126.060322-33.259766v33.258766l-126.060322 34.056736v-34.055736z m2.009925 58.023846l68.98444-5.688788-9.898632 27.19199-69.249431 6.371764 10.163623-27.874966z" /></svg>