<?xml version="1.0" standalone="no"?><!DOCTYPE svg PUBLIC "-//W3C//DTD SVG 1.1//EN" "http://www.w3.org/Graphics/SVG/1.1/DTD/svg11.dtd"><svg class="icon" width="64px" height="64.00px" viewBox="0 0 1024 1024" version="1.1" xmlns="http://www.w3.org/2000/svg"><path fill="#000000" d="M512 42.666667C371.2 42.666667 256 157.866667 256 298.666667s115.2 256 256 256 256-115.2 256-256-115.2-256-256-256z m0 426.666666c-93.866667 0-170.666667-76.8-170.666667-170.666666s76.8-170.666667 170.666667-170.666667 170.666667 76.8 170.666667 170.666667-76.8 170.666667-170.666667 170.666666zM768 725.333333h149.333333c12.8 0 21.333333-8.533333 21.333334-21.333333v-42.666667c0-12.8-8.533333-21.333333-21.333334-21.333333h-46.933333l55.466667-55.466667c8.533333-8.533333 12.8-17.066667 12.8-29.866666s-4.266667-21.333333-12.8-29.866667c-8.533333-8.533333-17.066667-12.8-29.866667-12.8h-149.333333c-12.8 0-21.333333 8.533333-21.333334 21.333333v42.666667c0 12.8 8.533333 21.333333 21.333334 21.333333h46.933333l-55.466667 55.466667c-8.533333 8.533333-12.8 17.066667-12.8 29.866667 0 25.6 17.066667 42.666667 42.666667 42.666666zM597.333333 695.466667v-89.6c-25.6-8.533333-55.466667-12.8-85.333333-12.8-179.2 0-328.533333 140.8-341.333333 320 0 17.066667 8.533333 25.6 21.333333 25.6h42.666667c12.8 0 21.333333-8.533333 21.333333-21.333334 12.8-132.266667 119.466667-234.666667 256-234.666666 29.866667 0 59.733333 4.266667 85.333333 12.8zM640 981.333333h149.333333c12.8 0 21.333333-8.533333 21.333334-21.333333v-42.666667c0-12.8-8.533333-21.333333-21.333334-21.333333h-46.933333l55.466667-55.466667c8.533333-8.533333 12.8-17.066667 12.8-29.866666s-4.266667-21.333333-12.8-29.866667c-8.533333-8.533333-17.066667-12.8-29.866667-12.8h-149.333333c-12.8 0-21.333333 8.533333-21.333334 21.333333v42.666667c0 12.8 8.533333 21.333333 21.333334 21.333333h46.933333l-55.466667 55.466667c-8.533333 8.533333-12.8 17.066667-12.8 29.866667 0 25.6 17.066667 42.666667 42.666667 42.666666z" /></svg>