<?xml version="1.0" standalone="no"?><!DOCTYPE svg PUBLIC "-//W3C//DTD SVG 1.1//EN" "http://www.w3.org/Graphics/SVG/1.1/DTD/svg11.dtd"><svg class="icon" width="64px" height="64.00px" viewBox="0 0 1024 1024" version="1.1" xmlns="http://www.w3.org/2000/svg"><path fill="#000000" d="M1024 933.714286c0 18.857143-15.428571 34.285714-34.285714 34.285714H34.285714c-18.857143 0-34.285714-15.428571-34.285714-34.285714v-0.155429c0-18.857143 15.428571-34.285714 34.285714-34.285714h955.428572c18.857143 0 34.285714 15.428571 34.285714 34.285714V933.714286zM773.988571 362.441143c-138.009143 0-250.014857 112.155429-250.014857 250.348571 0 138.190857 112.005714 250.346286 250.014857 250.346286 138.005714 0 250.011429-112.155429 250.011429-250.346286 0-138.193143-112.005714-250.348571-250.011429-250.348571z m0 458.278857c-114.477714 0-207.654857-93.301714-207.654857-207.929143a207.408 207.408 0 0 1 46.226286-130.626286L904.437714 774.434286a206.790857 206.790857 0 0 1-130.449143 46.285714z m158.522286-73.914286L640.148571 454.052571c36.061714-30.534857 82.772571-49.195429 133.84-49.195428 114.474286 0 207.651429 93.301714 207.651429 207.932571 0.001143 51.134857-18.393143 97.906286-49.129143 134.016zM804.405714 484.404571h-107.344v13.52l54.04 55.089143v-19.283428h50.604572c24.565714 0 40.042286 15.778286 40.042285 38.811428 0 21.034286-13.020571 35.812571-34.150857 38.064l40.042286 40.814857c30.712-14.525714 48.148571-44.825143 48.148571-78.878857 0.257143-48.074286-34.136-88.137143-91.376-88.137143h-0.006857z m-107.345143 282.443429h54.04v-106.164571h13.757715l-67.798857-69.36v175.524571z m0 0M479.876571 634.457143H268.04c-8.028571 0-14.48-6.602286-14.48-14.777143 0-8.248 6.451429-14.850286 14.48-14.850286h211.701714a299.776 299.776 0 0 1 5.630857-46.256H263.787429c-7.755429 0-14.208-6.596571-14.208-14.777143 0-8.038857 6.452571-14.499429 14.208-14.499428h229.061714a297.245714 297.245714 0 0 1 15.688-40.005714H261.932571c-8.101714-0.067429-14.485714-6.596571-14.485714-14.776 0-7.902857 6.452571-14.499429 14.485714-14.499429h262.678858c52.845714-84.716571 146.865143-141.100571 254.068571-141.100571 1.496 0 2.982857 0.035429 4.473143 0.057142-22.077714-16.684571-42.795429-23.368-42.795429-23.368l-21.346285-134.442285C706.381714 58.201143 613.924571 56 613.924571 56H240.996571c-90.331429 0-106.942857 78.012571-106.942857 78.012571L113.394286 295.881143C16.883429 295.052571 0 403.170286 0 403.170286v212.245714c0 107.704 72.897143 102.203429 72.897143 102.203429v85.438857c0.821714 54.776 51.205714 54.226286 51.205714 54.226285 55.459429 0 61.089143-52.302857 61.089143-52.302857v-88.458285h310.8c-9.018286-25.92-14.580571-53.456-16.115429-82.066286z m-272.102857-465.116572s0-31.478857 30.818286-31.478857h356.588571s39.125714-4.052571 43.178286 37.736l20.387429 120.283429-467.652572 0.822857 16.68-127.363429z m-57.930285 322.425143c-29.037714 0-52.509714-24.053714-52.509715-53.681143-0.068571-29.690286 23.472-53.677714 52.509715-53.677714 29.033143 0 52.577143 24.053714 52.577142 53.677714 0 29.627429-23.544 53.681143-52.577142 53.681143z" /></svg>