<?xml version="1.0" standalone="no"?><!DOCTYPE svg PUBLIC "-//W3C//DTD SVG 1.1//EN" "http://www.w3.org/Graphics/SVG/1.1/DTD/svg11.dtd"><svg class="icon" width="64px" height="64.00px" viewBox="0 0 1024 1024" version="1.1" xmlns="http://www.w3.org/2000/svg"><path fill="#000000" d="M977.877333 548.096a466.773333 466.773333 0 0 1-429.781333 429.568V981.333333h-72.192v-3.626666A466.773333 466.773333 0 0 1 46.08 548.096H42.666667v-72.192h3.456a466.773333 466.773333 0 0 1 429.781333-429.653333V42.666667h72.192v3.626666A466.773333 466.773333 0 0 1 977.92 475.904H981.333333v72.192h-3.456z m-48.682666-68.693333a413.312 413.312 0 0 0-374.186667-374.186667v147.413333h-75.562667V105.258667a413.312 413.312 0 0 0-374.186666 374.186666h147.498666v75.562667H105.258667a413.312 413.312 0 0 0 374.186666 374.186667v-147.413334h75.52v147.413334a413.312 413.312 0 0 0 374.186667-374.186667h-147.456v-75.605333h147.498667z m-228.565334 88.106666l6.058667-1.536c13.312-3.413333 21.333333-16.896 17.834667-30.08l-0.554667-2.133333a24.96 24.96 0 0 0-30.378667-17.664l-5.930666 1.536-1.450667-5.632 7.082667-1.834667c13.312-3.413333 21.333333-16.896 17.834666-30.122666l-0.768-3.029334a24.96 24.96 0 0 0-30.421333-17.664l-6.954667 1.792-1.450666-5.546666 13.44-3.498667c13.354667-3.413333 21.333333-16.896 17.834666-30.08l-1.450666-5.632a24.96 24.96 0 0 0-30.421334-17.664l-13.269333 3.413333-1.92-7.253333 3.498667-0.938667c13.312-3.413333 21.333333-16.896 17.834666-30.08l-1.066666-4.010666a24.96 24.96 0 0 0-30.378667-17.664l-3.328 0.853333-16.853333-64.768a30.122667 30.122667 0 0 0-36.565334-21.333333L389.973333 306.645333a29.781333 29.781333 0 0 0-21.546666 36.181334l5.674666 21.930666c-17.749333 12.629333-38.784 31.530667-37.290666 45.098667 2.133333 19.797333 0 48.810667 5.674666 60.842667 5.717333 12.032 26.453333 45.994667 12.885334 62.933333-13.568 16.981333-88.618667 79.957333-92.885334 82.090667-4.266667 2.133333-12.16 14.122667 0 26.88 12.16 12.714667 72.874667 60.117333 80.725334 67.882666 7.850667 7.808 32.170667 19.114667 53.589333-4.266666 12.8-13.866667 35.328-38.485333 51.498667-56.106667l13.738666 52.906667c4.138667 15.829333 20.565333 25.472 36.565334 21.376l198.912-49.749334a29.781333 29.781333 0 0 0 21.546666-36.181333l-18.432-70.954667z m-38.485333 49.450667l-162.304 40.533333a24.576 24.576 0 0 1-29.824-17.408l-2.730667-10.666666-29.098666-113.322667-18.773334-72.96h55.296s47.872-2.133333 32.853334-27.605333c-13.013333-22.101333-78.634667-57.984-104.704-62.976 3.114667-5.76 8.533333-10.24 15.402666-12.032l162.346667-40.576a24.576 24.576 0 0 1 29.824 17.408l8.149333 31.829333-30.72 7.936a24.661333 24.661333 0 0 0-17.877333 30.08l1.066667 4.010667c3.456 13.184 17.066667 21.077333 30.378666 17.621333l30.464-7.808 1.877334 7.253333-42.282667 10.922667a24.661333 24.661333 0 0 0-17.834667 30.08l1.493334 5.632c3.456 13.226667 17.066667 21.12 30.378666 17.664l41.984-10.794667 1.408 5.546667-26.794666 6.912a24.661333 24.661333 0 0 0-17.834667 30.08l0.853333 3.072c3.413333 13.184 17.066667 21.077333 30.378667 17.664l26.453333-6.826667 1.450667 5.632-18.645333 4.778667a24.661333 24.661333 0 0 0-17.834667 30.122667l0.554667 2.133333c3.498667 13.184 17.066667 21.077333 30.421333 17.621333l18.346667-4.693333 3.498666 13.568a24.32 24.32 0 0 1-17.621333 29.568z" /></svg>