<?xml version="1.0" standalone="no"?><!DOCTYPE svg PUBLIC "-//W3C//DTD SVG 1.1//EN" "http://www.w3.org/Graphics/SVG/1.1/DTD/svg11.dtd"><svg class="icon" width="64px" height="64.00px" viewBox="0 0 1024 1024" version="1.1" xmlns="http://www.w3.org/2000/svg"><path fill="#000000" d="M548.096 42.666667v3.626666A466.773333 466.773333 0 0 1 977.92 475.904H981.333333v72.192h-3.456a466.773333 466.773333 0 0 1-429.781333 429.568V981.333333h-72.192v-3.626666A466.773333 466.773333 0 0 1 46.08 548.096H42.666667v-72.192h3.456a466.773333 466.773333 0 0 1 429.781333-429.653333V42.666667h72.192z m6.912 62.592V252.586667h-75.562667V105.258667a413.312 413.312 0 0 0-374.186666 374.186666h147.498666v75.562667H105.258667a413.312 413.312 0 0 0 374.186666 374.186667v-147.413334h75.52v147.413334a413.312 413.312 0 0 0 374.186667-374.186667h-147.456v-75.605333h147.498667a413.312 413.312 0 0 0-374.186667-374.186667z m6.784 153.856a14.634667 14.634667 0 0 1 6.101333 12.288v26.624c0 45.056 0 81.92 7.082667 112.64 13.226667-19.456 34.56-39.936 72.106667-50.176l14.250666-4.096a19.2 19.2 0 0 1 13.226667 2.048 14.634667 14.634667 0 0 1 6.058667 12.288v15.36c0 38.912 10.154667 62.464 22.357333 88.064 11.178667 23.552 22.357333 48.085333 22.357333 81.92C725.333333 673.792 629.845333 768 512 768s-213.333333-94.208-213.333333-210.944c0-48.128 22.357333-112.64 72.106666-137.173333l15.274667-7.168a17.237333 17.237333 0 0 1 14.208 0l4.053333 3.072c11.178667-58.368 41.642667-120.832 128-152.576l15.232-6.144a14.165333 14.165333 0 0 1 14.250667 2.048z m-33.664 205.866666c-69.376 29.354667-66.346667 90.112-65.28 126.549334 0 8.106667-6.144 14.165333-14.336 16.213333-2.048 1.024-3.029333 1.024-5.12 1.024-7.125333 0-13.226667-3.072-16.298667-8.106667a129.962667 129.962667 0 0 1-14.293333-34.432c-20.437333 13.141333-48 34.432-39.808 78.976 2.048 13.141333 17.365333 30.378667 17.365333 30.378667a176.469333 176.469333 0 0 0 254.165334-7.082667s17.365333-20.266667 18.346666-43.52c-0.981333-30.421333-20.394667-36.48-31.616-51.626666-10.24-13.226667-16.341333-24.32-18.346666-47.616-17.365333 7.082667-27.605333 17.194667-31.658667 32.426666-0.853333 5.162667-5.546667 9.642667-11.946667 11.434667l-3.413333 0.682667h-3.029333c-7.168 0-13.269333-3.029333-16.341334-8.106667-17.365333-27.306667-18.346667-56.704-18.346666-97.194667z" /></svg>